<svg viewBox="0 0 147 36" fill="none" xmlns="http://www.w3.org/2000/svg">
<g clip-path="url(#clip0_18_2531)">
<mask id="mask0_18_2531" style="mask-type:luminance" maskUnits="userSpaceOnUse" x="0" y="0" width="147" height="36">
<path d="M146.13 0H0V35.97H146.13V0Z" fill="white"></path>
</mask>
<g mask="url(#mask0_18_2531)">
<path d="M30.06 5.51001L30.24 6.65001C30.38 7.72001 30.45 8.79001 30.44 9.87001C30.44 12.25 30.16 14.61 29.61 16.92C28.87 20.05 27.57 23.02 25.8 25.68C23.38 29.23 20.17 32.13 16.45 34.14L15.92 34.44L15.39 34.14C11.68 32.12 8.49001 29.22 6.08001 25.68C4.30001 23.03 3.01001 20.06 2.28001 16.92C1.73001 14.61 1.45001 12.25 1.45001 9.87001C1.44001 8.79001 1.50001 7.72001 1.65001 6.65001L1.83001 5.51001C1.85001 5.42001 1.85001 5.32001 1.83001 5.22001C1.81001 5.12001 1.77001 5.03001 1.72001 4.96001C1.67001 4.88001 1.60001 4.81001 1.52001 4.76001C1.44001 4.71001 1.35001 4.67001 1.26001 4.66001C1.17001 4.64001 1.07001 4.64001 0.980008 4.66001C0.890008 4.68001 0.800008 4.72001 0.720008 4.77001C0.640008 4.82001 0.580008 4.90001 0.530008 4.98001C0.480008 5.06001 0.450008 5.15001 0.430008 5.25001L0.250008 6.39001C0.0800084 7.52001 8.36723e-06 8.66001 0.0200084 9.80001C0.0100084 12.29 0.290008 14.77 0.850008 17.19C1.63001 20.5 2.99001 23.63 4.87001 26.43C7.42001 30.16 10.79 33.22 14.71 35.34L15.54 35.82C15.64 35.87 15.76 35.9 15.87 35.9C15.98 35.9 16.1 35.87 16.2 35.82L17.03 35.34C20.95 33.22 24.32 30.16 26.86 26.43C28.74 23.63 30.1 20.5 30.88 17.19C31.44 14.77 31.72 12.29 31.71 9.80001C31.71 8.66001 31.64 7.52001 31.5 6.39001L31.31 5.25001C31.31 5.15001 31.27 5.05001 31.23 4.97001C31.18 4.88001 31.12 4.81001 31.05 4.74001C30.97 4.68001 30.89 4.63001 30.79 4.61001C30.69 4.59001 30.6 4.58001 30.5 4.60001C30.41 4.62001 30.31 4.65001 30.23 4.71001C30.15 4.76001 30.08 4.84001 30.03 4.92001C29.98 5.00001 29.94 5.10001 29.93 5.20001C29.91 5.30001 29.92 5.40001 29.94 5.49001L30.06 5.52001V5.51001Z" fill="#111111"></path>
<path d="M5.57002 4.72L15.92 1.47L26.49 4.82C26.67 4.88 26.86 4.86 27.02 4.77C27.18 4.68 27.3 4.53 27.36 4.35C27.41 4.17 27.4 3.97 27.31 3.8C27.22 3.63 27.08 3.51 26.9 3.45L16.15 0.03C16.02 -0.01 15.88 -0.01 15.74 0.03L5.19002 3.36C5.10002 3.38 5.01002 3.42 4.93002 3.48C4.85002 3.54 4.79002 3.61 4.74002 3.7C4.69002 3.79 4.66002 3.88 4.65002 3.98C4.64002 4.08 4.65002 4.18 4.68002 4.27C4.71002 4.37 4.76002 4.45 4.82002 4.53C4.88002 4.61 4.96002 4.67 5.05002 4.71C5.14002 4.75 5.23002 4.78 5.33002 4.78C5.43002 4.78 5.52002 4.76 5.61002 4.73H5.59002L5.57002 4.72Z" fill="#111111"></path>
<path d="M0.469998 5.67993L15.3 35.5599C15.36 35.6799 15.45 35.7699 15.56 35.8399C15.67 35.9099 15.79 35.9399 15.92 35.9399C16.05 35.9399 16.17 35.8999 16.28 35.8399C16.39 35.7699 16.48 35.6699 16.54 35.5599L25.58 18.1499L31.37 5.73993C31.42 5.64993 31.44 5.55993 31.45 5.45993C31.45 5.35993 31.45 5.25993 31.42 5.16993C31.39 5.07993 31.34 4.98993 31.28 4.91993C31.22 4.84993 31.14 4.78993 31.06 4.73993C30.97 4.69993 30.88 4.66993 30.79 4.66993C30.7 4.66993 30.6 4.67993 30.51 4.71993C30.42 4.74993 30.34 4.80993 30.27 4.87993C30.2 4.94993 30.15 5.02993 30.11 5.11993L24.32 17.5099L15.91 33.7299L1.71 5.05993C1.63 4.88993 1.48 4.75993 1.31 4.69993C1.13 4.63993 0.939998 4.65993 0.779998 4.73993C0.619998 4.82993 0.489998 4.97993 0.429998 5.15993C0.369998 5.33993 0.389998 5.53993 0.469998 5.70993V5.67993Z" fill="#111111"></path>
<path d="M7.57 19.0199H24.05C24.15 19.0299 24.25 19.0199 24.34 18.9899C24.43 18.9599 24.52 18.9099 24.59 18.8399C24.66 18.7699 24.72 18.6899 24.76 18.5999C24.8 18.5099 24.82 18.4099 24.82 18.2999C24.82 18.1899 24.8 18.0999 24.76 17.9999C24.72 17.9099 24.66 17.8199 24.59 17.7599C24.52 17.6899 24.43 17.6399 24.34 17.6099C24.25 17.5799 24.15 17.5699 24.05 17.5799H7.57C7.4 17.5999 7.24 17.6799 7.12 17.8199C7 17.9499 6.94 18.1299 6.94 18.2999C6.94 18.4699 7 18.6499 7.12 18.7799C7.24 18.9099 7.39 18.9999 7.57 19.0199Z" fill="#111111"></path>
<path d="M53.56 12.8201H42.81C42.63 12.8201 42.45 12.9001 42.32 13.0301C42.19 13.1601 42.12 13.3501 42.11 13.5301V22.4201C42.11 22.6101 42.18 22.7901 42.31 22.9301C42.44 23.0701 42.62 23.1401 42.8 23.1501H53.55V24.6401H42.8C42.52 24.6401 42.24 24.5801 41.98 24.4701C41.72 24.3601 41.48 24.2001 41.28 23.9901C41.08 23.7801 40.92 23.5401 40.81 23.2701C40.7 23.0001 40.65 22.7101 40.65 22.4201V13.5301C40.65 13.2401 40.7 12.9501 40.81 12.6801C40.92 12.4101 41.08 12.1701 41.28 11.9601C41.48 11.7501 41.72 11.5901 41.98 11.4801C42.24 11.3701 42.52 11.3101 42.8 11.3101H53.55V12.8101L53.56 12.8201Z" fill="#111111"></path>
<path d="M73.7 11.3201V12.8201H63.37V17.2301H71.64V18.7401H63.37V23.1501H73.7V24.6401H61.91V11.3201H73.7Z" fill="#111111"></path>
<path d="M84.21 18.1601H92.82C93 18.1601 93.18 18.0901 93.31 17.9601C93.37 17.8901 93.43 17.8201 93.46 17.7301C93.49 17.6401 93.51 17.5501 93.51 17.4601V13.5501C93.51 13.4601 93.5 13.3601 93.46 13.2801C93.43 13.1901 93.37 13.1101 93.31 13.0501C93.25 12.9801 93.17 12.9301 93.09 12.8901C93.01 12.8501 92.92 12.8401 92.82 12.8401H84.2C84.02 12.8401 83.84 12.9201 83.71 13.0501C83.58 13.1801 83.51 13.3701 83.5 13.5501V17.4601C83.5 17.5501 83.51 17.6501 83.55 17.7301C83.59 17.8201 83.64 17.8901 83.71 17.9601C83.84 18.0901 84.02 18.1601 84.2 18.1601H84.21ZM94.96 13.5501V17.4601C94.96 17.7501 94.91 18.0401 94.8 18.3101C94.69 18.5801 94.53 18.8301 94.33 19.0301C94.13 19.2401 93.89 19.4001 93.63 19.5101C93.37 19.6201 93.09 19.6801 92.8 19.6701H90.83L94.88 24.6301H92.96L88.92 19.6701H84.18C83.95 19.6601 83.72 19.6301 83.49 19.5901V24.6301H82.03V11.3201H92.78C93.06 11.3201 93.34 11.3701 93.61 11.4801C93.87 11.5901 94.11 11.7501 94.31 11.9601C94.51 12.1701 94.67 12.4101 94.78 12.6801C94.89 12.9501 94.94 13.2401 94.94 13.5301L94.96 13.5501Z" fill="#111111"></path>
<path d="M102.68 11.3201H115.59V12.8201H109.87V24.6401H108.42V12.8201H102.68V11.3201Z" fill="#111111"></path>
<path d="M124.87 11.3201H123.41V24.6401H124.87V11.3201Z" fill="#111111"></path>
<path d="M144.25 11.3201H146.11L140.72 17.9801L146.14 24.6401H144.25L139.44 18.7401H135.31V24.6401H133.84V11.3201H135.31V17.2301H139.44L144.25 11.3201Z" fill="#111111"></path>
</g>
</g>
<defs>
<clipPath id="clip0_18_2531">
<rect width="146.13" height="35.97" fill="white"></rect>
</clipPath>
</defs>
</svg>
