<svg xmlns="http://www.w3.org/2000/svg" xml:space="preserve" viewBox="0 0 320 200"><g fill="none" stroke="#FFF" stroke-linecap="round" stroke-linejoin="round" stroke-miterlimit="10" stroke-width="2.021"><path d="m36.86 42.01-15.01-20.2L10 36.31M35.68 56.57l1.18-14.56 10.51-14.27h6.58l-3.62 9.23zM160 168.97h-5.15l-13.66-13.99v-5.6l13.99-22.88L160 92.76l-17.82-17.94"/><path d="M160 74.82h-17.82l-6.09 2.96v57.94l19.09-9.22M127.36 149.88l8.73-14.16h-14.65l1.97 14.16zM160 149.88h-36.59l18.3 36.87H160M104.32 60.64l27.56 17.92M73.87 55.56l7.9-8.4h-6.09l-9.06 8.4-9.36 17.61z"/><path d="m121.44 83.5-12.35-5.23-4.77-9.05V57.04l30.94 19.92-21.89 10.37-24.86 9.87L28.27 73 10 36.31 88.51 97.2l14.33-22.38-28.97-19.26h-8.73L50.33 36.97l-13.47 5.04-14.51 3.88M21.85 21.81l4.28-8.56h-7.24L10 36.31M102.84 74.82h4.43M113.88 87.33l4.22 24.14v5.65l3.34 18.6"/><path d="M118.1 117.12v-5.65l8.93-4.23 9.06 4.94-9 9.05zM127.03 107.24h9.06M132.89 168.97h22.31l-13.49 17.78"/><g><path d="m283.14 42.01 15.01-20.2L310 36.31M284.32 56.57l-1.18-14.56-10.51-14.27h-6.58l3.62 9.23zM160 168.97h5.15l13.66-13.99v-5.6l-13.99-22.88L160 92.76l17.82-17.94"/><path d="M160 74.82h17.82l6.09 2.96v57.94l-19.09-9.22M192.64 149.88l-8.73-14.16h14.65l-1.97 14.16zM160 149.88h36.59l-18.3 36.87H160M215.68 60.64l-27.56 17.92M246.13 55.56l-7.9-8.4h6.09l9.06 8.4 9.36 17.61z"/><path d="m198.56 83.5 12.35-5.23 4.77-9.05V57.04l-30.94 19.92 21.89 10.37 24.86 9.87L291.73 73 310 36.31 231.49 97.2l-14.33-22.38 28.97-19.26h8.73l14.81-18.59 13.47 5.04 14.51 3.88M298.15 21.81l-4.28-8.56h7.24L310 36.31M217.16 74.82h-4.43M206.12 87.33l-4.22 24.14v5.65l-3.34 18.6"/><path d="M201.9 117.12v-5.65l-8.93-4.23-9.06 4.94 9 9.05zM192.97 107.24h-9.06M187.11 168.97H164.8l13.49 17.78"/></g></g></svg>