<svg version="1.2" xmlns="http://www.w3.org/2000/svg" viewBox="0 0 1541 529" width="1541" height="529">
	<title>elastsss-svg</title>
	<style>
		.s0 { fill: #ffffff } 
		.s1 { fill: #fed10a } 
		.s2 { fill: #24bbb1 } 
		.s3 { fill: #ef5098 } 
		.s4 { fill: #1ba9f5 } 
		.s5 { fill: #93c83e } 
		.s6 { fill: #0077cc } 
	</style>
	<g id="Layer">
		<path id="Layer" class="s0" d="m530.2 277.7c0-44.4-27.5-83.4-69-98.4 1.8-9.4 2.7-18.8 2.7-28.4 0-82.7-67.2-149.9-149.7-149.9-48.4 0-93.2 23.1-121.5 62.1-13.9-10.8-30.9-16.6-48.6-16.6-43.9 0-79.6 35.6-79.6 79.5 0 9.6 1.8 19 5 27.8-41.3 14.8-69.5 54.4-69.5 98.5 0 44.6 27.8 83.6 69.2 98.6-1.7 9.2-2.6 18.8-2.6 28.5 0 82.4 67 149.4 149.4 149.4 48.4 0 93.3-23.3 121.3-62.3 13.9 11 30.9 17 48.6 17 43.9 0 79.6-35.6 79.6-79.5 0-9.6-1.8-19-5-27.8 41.3-14.8 69.7-54.4 69.7-98.5z"/>
		<path id="Layer" class="s1" d="m208.4 228.4l116.1 52.8 117-102.6c1.8-8.5 2.4-16.8 2.4-25.7 0-72.2-58.7-130.8-130.8-130.8-43.3 0-83.4 21.2-107.8 56.9l-19.5 101z"/>
		<path id="Layer" class="s2" d="m88.3 351.1c-1.8 8.5-2.5 17.3-2.5 26.2 0 72.4 59 131.1 131.4 131.1 43.4 0 84-21.5 108.4-57.4l19.3-100.5-25.8-49.3-116.5-53.1z"/>
		<path id="Layer" class="s3" d="m87.6 150.4l79.6 18.8 17.5-90.2c-10.8-8.3-24.2-12.8-38.1-12.8-34.6 0-62.8 28-62.8 62.7 0 7.4 1.4 14.8 3.8 21.5z"/>
		<path id="Layer" class="s4" d="m80.7 169.5c-35.4 11.6-60.3 45.7-60.3 83.1 0 36.5 22.6 69 56.5 82l111.6-100.8-20.4-43.7z"/>
		<path id="Layer" class="s5" d="m345.8 451c11 8.3 24.2 13 37.9 13 34.5 0 62.7-28 62.7-62.7 0-7.6-1.3-15-3.8-21.7l-79.3-18.6z"/>
		<path id="Layer" class="s6" d="m361.9 340.2l87.4 20.3c35.7-11.6 60.3-45.7 60.3-83.3 0-36.3-22.6-69-56.5-81.8l-114.3 100.2z"/>
		<path id="Layer" fill-rule="evenodd" class="s0" d="m796.9 132.5h27.3v262.1h-27.3zm-55.6 239.2l10.6-1.1 0.6 21.5c-27.8 3.8-51.5 5.8-71.2 5.8q-39.4 0-55.8-22.8c-11-15.2-16.4-39-16.4-71 0-64.1 25.6-96.1 76.4-96.1 24.7 0 43.1 6.9 55.2 20.6 12.1 13.7 18.1 35.4 18.1 64.7l-1.6 20.9h-120.5c0 20.1 3.6 35.1 11 44.8 7.3 9.6 19.9 14.5 38.1 14.5 18.3 0.5 36.7-0.2 55.5-1.8zm-9.8-79c0-22.4-3.6-38.3-10.8-47.5-7.2-9.2-18.8-13.9-34.9-13.9-16.2 0-28.5 4.9-36.6 14.5-8 9.7-12.3 25.4-12.5 46.9zm288.2 75.2l-1.4 24.2q-3.7 0-7.3 0.1c-16 0.1-29.1 0.3-37.5-7.7-22 9.6-43.7 13.7-65.7 13.7-16.8 0-29.5-4.7-38.3-14.4-8.7-9.4-13.2-23-13.2-41 0-17.7 4.5-30.9 13.4-39.2 9-8.3 23.1-13.6 42.4-15.4l57.4-5.4v-15.7c0-12.3-2.7-21.3-8.1-26.6-5.4-5.4-12.8-8.1-22-8.1h-71.9v-24.2h70.1c20.7 0 35.7 4.7 45.1 14.3 9.6 9.5 14.3 24.5 14.3 44.6v89.9c0 9.1 22.7 10.9 22.7 10.9zm-58.5-1.1l8.3-2.9v-60.3l-54 5.2c-11 0.9-18.9 4-23.8 9.4-4.9 5.4-7.2 13.2-7.2 23.3 0 22.4 9.2 33.6 27.8 33.6 16.6 0 33-2.7 48.9-8.3zm142.7-134.2c-26.4 0-39.9 9.2-39.9 27.8 0 8.5 3.2 14.6 9.2 18.1 6.1 3.6 20 7.2 41.7 11 21.7 3.8 37 9 46 15.9q13.4 10.1 13.4 38.3c0 18.9-6.1 32.5-18.2 41.3-12.1 8.7-29.5 13.2-52.8 13.2-15.1 0-65.5-5.6-65.5-5.6l1.6-23.8q6.8 0.7 13 1.2c22.3 2.2 39.2 3.8 51.1 3.8q21.2 0 32.3-6.8c7.3-4.4 11.2-12.1 11.2-22.6q0-15.8-9.5-21.5-9.4-5.7-41.6-10.7c-21.6-3.4-36.8-8.3-45.8-15.1-8.9-6.5-13.4-18.8-13.4-36.5 0-17.7 6.3-30.9 18.8-39.4 12.6-8.5 28.3-12.8 46.9-12.8 14.8 0 66.3 3.8 66.3 3.8v24c-9-0.5-17.5-1.1-25.4-1.6-15.8-1.1-29.1-2-39.4-2zm144.6 90.5c0 20.9 1.5 34.7 4.4 41.2 3.2 6.5 10.4 9.9 21.8 9.9l32.5-2.2 1.8 22.6c-16.4 2.7-28.7 4-37.2 4-19.1 0-32.1-4.7-39.5-13.9-7.4-9.2-11-26.9-11-52.8v-96.1h-25.9v-23.8h25.9v-56h27.2v55.8h58v24h-58zm96.1-152.6v-31.6h27.4v31.8zm0 41.5h27.3v182.5h-27.3zm195.8 1.8l-1.1 22.2q-29.3-3.3-43-3.3c-20.6 0-34.8 4.9-42.2 14.7-7.4 9.9-11.2 28.3-11.2 54.9 0 26.7 3.4 45.3 10.3 55.8 7 10.5 21.3 15.7 43.3 15.7l43-3.4 1.1 22.6c-22.6 3.4-39.6 5.2-50.8 5.2-28.5 0-48.2-7.4-59-22-10.7-14.5-16.3-39.2-16.3-73.9 0-34.7 5.8-59.1 17.5-73 11.8-13.9 31.3-21.1 58.7-21.1 8 0 21.7 1.6 41 4.5z"/>
	</g>
</svg>