<?xml version="1.0" encoding="UTF-8"?>
<svg xmlns="http://www.w3.org/2000/svg" xmlns:xlink="http://www.w3.org/1999/xlink" version="1.1" id="Layer_1" x="0px" y="0px" viewBox="0 0 365.2 123" style="enable-background:new 0 0 365.2 123;" xml:space="preserve"> <g id="XMLID_1_"> <polygon id="XMLID_4_" points="141.8,28.8 175.3,28.8 175.3,35.7 162.9,35.7 162.9,70.2 154.1,70.2 154.1,35.7 141.8,35.7 "/> <path id="XMLID_7_" d="M192.7,35.7h11c3.9,0.1,6.2,1.6,6.2,5.2c0,3.7-2.3,5.6-6.2,5.6h-11V35.7z M192.7,53.8h9.4 c0,0,5.8,12.7,6.6,16.4h10.9l-8.4-17c5.9-1.5,7.4-8.6,7.4-13.9c0-8.4-9.4-10.7-17.2-10.4h-17.6v41.4h8.9L192.7,53.8L192.7,53.8z"/> <polygon id="XMLID_8_" points="230.5,28.8 260.2,28.8 260.2,35.7 239.4,35.7 239.4,45.4 258.5,45.4 258.5,52.3 239.4,52.3 239.4,63.3 260.8,63.3 260.8,70.2 230.5,70.2 "/> <polygon id="XMLID_9_" points="296.5,70.2 281.3,42.7 281.2,42.8 281.2,70.2 272.9,70.2 272.9,28.8 283.9,28.8 299,55.9 299.1,55.7 299.1,28.8 307.4,28.8 307.4,70.2 "/> <path id="XMLID_12_" d="M329.2,36h4.6c10.5-0.1,12.1,6.9,12.1,13.5s-1.5,13.9-12.1,13.8h-4.6V36z M320.3,70.2h14.1 c12.9,0.1,20.9-6.3,20.9-20.7s-8-20.8-20.9-20.7h-14.1V70.2z"/> <polygon id="XMLID_13_" points="169.5,104.2 165.2,104.2 165.2,86.1 160.7,104.2 156.2,104.2 151.7,86.1 151.6,104.2 147.3,104.2 147.3,81.2 154.3,81.2 158.4,96.9 162.5,81.2 169.5,81.2 "/> <rect id="XMLID_14_" x="199.8" y="81.2" width="4.6" height="23"/> <path id="XMLID_17_" d="M295.7,89.4c-0.3,0.6-0.8,1-1.5,1.3c-0.4,0.1-0.8,0.2-1.3,0.2s-1.3,0.1-2.3,0.1h-0.5h-3.4v-5.8h3.6 c1.7,0,2.7,0,3.2,0.1c0.5,0,0.9,0.2,1.3,0.4c0.4,0.3,0.7,0.6,0.9,1c0.2,0.4,0.3,0.9,0.3,1.4C296,88.5,295.9,89,295.7,89.4 M296.1,94.6l1.4-0.4c1.1-0.4,2-1.3,2.6-2.3s0.8-2.8,0.8-4.1c0-1.2-0.4-2.5-1-3.6c-0.7-1.2-1.6-2-2.9-2.5c-0.6-0.2-1.1-0.3-1.6-0.4 c-0.9-0.1-2.1-0.2-3.7-0.2H282v23h4.6v-9L291,95l4.9,9.1h5.6L296.1,94.6z"/> <path id="XMLID_20_" d="M341.6,99.1c-1.1,1-2.4,1.5-4.1,1.5c-1.3,0-2.4-0.3-3.4-0.9c-0.7-0.5-1.4-1.1-1.8-2 c-0.4-0.6-0.6-1.3-0.8-1.9c-0.2-0.9-0.4-1.9-0.4-3.1c0-2.1,0.4-3.9,1.2-5.2c1.1-1.8,2.8-2.7,5.1-2.7c2.5,0,4.2,1,5.3,2.9 c0.7,1.3,1,2.9,1,4.9C343.9,95.6,343.1,97.7,341.6,99.1 M345.9,84.3c-2-2.3-4.8-3.4-8.4-3.4c-3.5,0-6.3,1.1-8.2,3.2 c-1.9,2.1-2.9,5.1-2.9,8.8c0,3.2,0.8,5.8,2.3,7.9c1.9,2.6,4.9,3.9,8.8,3.9c3.8,0,6.6-1.2,8.6-3.7c1.7-2.1,2.5-4.8,2.5-8.2 C348.7,89.2,347.7,86.4,345.9,84.3"/> <path id="XMLID_21_" d="M249.4,88.8c-0.4-1.4-1.1-3.9-5-3.9c-2.3,0-5.6,1.5-5.6,8c0,4.1,1.6,7.8,5.6,7.8c2.6,0,4.5-1.5,5-4.3h4.8 c-0.9,5-4.2,8.4-9.9,8.4c-6.1,0-10.4-4.1-10.4-11.9c0-8,4.6-12,10.5-12c6.8,0,9.6,4.7,9.8,8h-4.8V88.8z"/> <polygon id="XMLID_22_" points="357.1,72.8 354.6,72.8 354.6,79.4 353.6,79.4 353.6,72.8 351.2,72.8 351.2,71.9 357.1,71.9 "/> <polygon id="XMLID_23_" points="365.2,79.4 364.3,79.4 364.3,73.1 362.1,79.4 361.2,79.4 359.1,73 359,79.4 358.1,79.4 358.1,71.9 359.6,71.9 361.3,77.2 361.5,77.8 361.7,78.3 362.1,77.1 363.9,71.9 365.2,71.9 "/> <g> <path d="M122.4,51.3c0.1,0.3,0.1,0.6,0.1,0.9C122.5,51.8,122.4,51.5,122.4,51.3z"/> <path d="M18.1,17.9C6.9,29,0,44.4,0,61.5C0,74,3.8,85.7,10.2,95.4c-0.1-0.3-0.2-0.7-0.3-1c-6.1-9.6-9.7-20.9-9.7-33.1 C0.2,44.4,7,29,18.1,17.9z"/> <path d="M11.4,73.2l0.1-0.2l0.2-0.6l0.2-0.6l0.1-0.3c1.1-2.8,2.6-5.7,4.3-8.7c0.2-0.5,0.5-1,0.7-1.5H9.6l1.8-3.9 c6.1-1.7,16.2-5,25.9-14.4h0.3h5.1l-6.6,14.1h10.6l-1.9,4.2H34.2c0,0-5,9.9-6.6,17c-1.3,7.9,0,13.8,7.1,16c4.4,1.4,9.8,1,15.7-0.6 c13.7-4.3,28.3-13.7,39-26.1c17.6-20.5,18-41.4,0.8-46.8c-11-3.4-26.6,0.4-41,9c18-11.6,37.7-17,51.3-12.8 c2.6,0.8,4.8,1.9,6.6,3.2C95.8,7.8,79.6,0,61.5,0C44.6,0,29.2,6.8,18.1,17.9C7,29,0.2,44.4,0.2,61.3c0,12.2,3.6,23.6,9.7,33.1 C8,88.6,8.5,81.2,11.4,73.2z"/> <path d="M122.2,50.2c0.1,0.4,0.1,0.7,0.2,1.1C122.3,50.9,122.2,50.6,122.2,50.2z"/> <path d="M122.5,52.1c0.4,3,0.7,6.1,0.7,9.2c0,34-27.5,61.5-61.5,61.5c-17.5,0-33.2-7.3-44.4-18.9c-0.1-0.1-0.3-0.2-0.4-0.3 c11.2,12,27.2,19.4,44.9,19.4c34,0,61.5-27.5,61.5-61.5C123.3,58.3,123,55.2,122.5,52.1z"/> <path d="M61.7,122.8c34,0,61.5-27.5,61.5-61.5c0-3.1-0.2-6.2-0.7-9.2c0-0.3-0.1-0.6-0.1-0.9c-0.1-0.4-0.1-0.7-0.2-1.1 c-1.5-7.7-4.4-14.9-8.4-21.3c4.1,11.2-1,27.8-15.2,44.4c-21.3,24.8-55,39.8-75.2,33.5c-2.3-0.7-4.4-1.7-6.1-2.9 C28.5,115.5,44.2,122.8,61.7,122.8z"/> </g> </g> </svg>