<svg width="872" height="874" viewBox="0 0 872 874" fill="none" xmlns="http://www.w3.org/2000/svg">
<mask id="path-1-outside-1_1782_123" maskUnits="userSpaceOnUse" x="0" y="0" width="872" height="874" fill="black">
<rect fill="white" width="872" height="874"/>
<path d="M406.595 848.204C407.967 848.293 409.199 848.708 410.29 849.451C411.381 850.204 412.23 851.17 412.839 852.348C413.435 853.526 413.69 854.801 413.603 856.173C413.514 857.556 413.1 858.788 412.359 859.867C411.607 860.957 410.642 861.8 409.466 862.396C408.288 863.003 407.013 863.262 405.641 863.173C404.258 863.084 403.026 862.663 401.947 861.91C400.856 861.167 400.012 860.207 399.415 859.03C398.806 857.863 398.546 856.588 398.634 855.204C398.721 853.832 399.141 852.601 399.894 851.511C400.635 850.42 401.595 849.571 402.772 848.964C403.937 848.368 405.212 848.114 406.595 848.204Z"/>
<path d="M291.388 853.109L287.379 851.768L295.189 828.067C295.886 825.951 296.866 824.284 298.129 823.065C299.392 821.846 300.856 821.089 302.52 820.795C304.184 820.501 305.976 820.675 307.894 821.317C309.704 821.923 311.207 822.791 312.402 823.922C313.593 825.063 314.39 826.384 314.793 827.885C315.196 829.386 315.118 830.983 314.559 832.678L310.615 831.358C310.925 830.419 310.963 829.521 310.731 828.665C310.484 827.816 310.016 827.06 309.325 826.397C308.634 825.734 307.766 825.228 306.72 824.879C305.567 824.493 304.506 824.408 303.538 824.623C302.57 824.838 301.721 825.345 300.991 826.143C300.247 826.949 299.649 828.037 299.198 829.408L291.388 853.109Z"/>
<path d="M268.748 806.249L272.735 808.184L246.15 834.084L242.224 832.179L245.745 795.087L249.732 797.021L246.446 828.089L246.691 828.208L268.748 806.249ZM261.396 817.838L245.324 810.039L246.941 806.656L263.013 814.454L261.396 817.838Z"/>
<path d="M184.266 797.653L203.209 768.33L206.63 770.574L207.663 804.03L207.948 804.217L222.821 781.194L226.356 783.512L207.413 812.835L203.993 810.591L202.939 777.041L202.654 776.854L187.744 799.934L184.266 797.653Z"/>
<path d="M112.897 717.031C112.302 718.084 111.874 719.145 111.614 720.215C111.338 721.284 111.243 722.349 111.328 723.411C111.406 724.464 111.672 725.499 112.129 726.514C112.585 727.529 113.235 728.505 114.079 729.442C115.464 730.978 117.117 732.015 119.039 732.551C120.96 733.088 123.023 733.026 125.227 732.365C127.43 731.703 129.647 730.353 131.877 728.312C134.107 726.271 135.651 724.174 136.508 722.018C137.365 719.863 137.609 717.784 137.241 715.779C136.872 713.775 135.965 711.971 134.52 710.368C133.181 708.882 131.687 707.861 130.039 707.306C128.375 706.749 126.679 706.684 124.951 707.109C123.208 707.534 121.548 708.467 119.972 709.91L119.306 708.763L126.336 716.563L123.569 719.094L114.668 709.218L117.434 706.687C119.555 704.746 121.81 703.514 124.2 702.991C126.582 702.46 128.923 702.597 131.225 703.402C133.51 704.206 135.581 705.638 137.437 707.698C139.507 709.994 140.788 712.502 141.282 715.223C141.769 717.935 141.461 720.682 140.357 723.463C139.246 726.236 137.332 728.865 134.616 731.351C132.579 733.215 130.5 734.617 128.379 735.557C126.242 736.495 124.143 736.984 122.081 737.022C120.02 737.06 118.059 736.667 116.2 735.843C114.34 735.018 112.661 733.775 111.162 732.112C109.929 730.744 108.986 729.282 108.332 727.724C107.661 726.166 107.281 724.581 107.19 722.97C107.083 721.357 107.264 719.767 107.732 718.199C108.192 716.639 108.94 715.169 109.976 713.789L112.897 717.031Z"/>
<path d="M111.072 677.083L113.594 680.727L77.7381 690.261L75.2544 686.674L96.5184 656.06L99.041 659.704L80.9369 685.18L81.0922 685.404L111.072 677.083ZM98.984 683.579L88.8161 668.891L91.8841 666.735L102.052 681.422L98.984 683.579Z"/>
<path d="M84.9892 635.874L54.0893 652.117L48.6659 641.643C47.412 639.221 46.7951 637.016 46.8153 635.028C46.8254 633.046 47.3513 631.306 48.393 629.808C49.4346 628.311 50.8658 627.083 52.6864 626.126C54.507 625.169 56.3147 624.694 58.1095 624.701C59.9044 624.707 61.6038 625.271 63.2079 626.392C64.8019 627.518 66.2207 629.282 67.4642 631.684L71.853 640.16L68.4734 641.937L64.1472 633.581C63.2903 631.926 62.3593 630.721 61.354 629.966C60.3434 629.201 59.2781 628.823 58.1578 628.835C57.0222 628.841 55.8359 629.169 54.5987 629.82C53.3614 630.47 52.4003 631.271 51.7153 632.221C51.0302 633.172 50.7001 634.289 50.7249 635.573C50.7396 636.862 51.1806 638.344 52.0479 640.019L55.465 646.618L83.0455 632.12L84.9892 635.874ZM63.5533 628.579L73.4841 613.653L75.7412 618.012L65.7477 632.817L63.5533 628.579Z"/>
<path d="M36.7674 568.115C40.2195 566.835 43.4309 566.353 46.4016 566.67C49.3722 566.986 51.937 567.98 54.0961 569.652C56.2552 571.324 57.8454 573.558 58.8668 576.354C59.8882 579.151 60.1147 581.891 59.5461 584.574C58.9776 587.257 57.6642 589.69 55.6058 591.871C53.5474 594.052 50.7921 595.783 47.34 597.063C43.8879 598.343 40.6765 598.825 37.7059 598.508C34.7352 598.192 32.1704 597.198 30.0113 595.526C27.8522 593.854 26.262 591.62 25.2406 588.823C24.2192 586.027 23.9928 583.287 24.5613 580.604C25.1298 577.921 26.4433 575.488 28.5016 573.307C30.56 571.126 33.3153 569.395 36.7674 568.115ZM38.1709 571.958C35.3367 573.009 33.1182 574.371 31.5154 576.044C29.9086 577.706 28.8988 579.529 28.4859 581.512C28.0691 583.484 28.2233 585.463 28.9484 587.449C29.6735 589.434 30.8312 591.047 32.4214 592.287C34.0077 593.517 35.9493 594.245 38.246 594.472C40.5389 594.689 43.1024 594.271 45.9366 593.22C48.7707 592.169 50.9912 590.813 52.5979 589.15C54.2008 587.477 55.2106 585.655 55.6273 583.682C56.0402 581.699 55.8841 579.715 55.159 577.729C54.4339 575.744 53.2782 574.136 51.6919 572.907C50.1017 571.666 48.1601 570.938 45.8672 570.722C43.5705 570.495 41.005 570.907 38.1709 571.958Z"/>
<path d="M7.10077 521.181L41.1217 513.356L42.0255 517.346L19.5163 542.042L19.5916 542.375L46.3034 536.231L47.2373 540.354L13.2163 548.178L12.3125 544.189L34.8731 519.411L34.7978 519.078L8.0196 525.237L7.10077 521.181Z"/>
<path d="M11.4641 467.893C10.3575 468.378 9.38104 468.969 8.5347 469.668C7.67596 470.357 6.96432 471.151 6.39977 472.051C5.83414 472.939 5.43203 473.926 5.19344 475.011C4.95485 476.096 4.89566 477.266 5.01587 478.522C5.21298 480.58 5.9238 482.401 7.14834 483.983C8.37288 485.565 10.0677 486.753 12.2328 487.548C14.3979 488.342 16.9847 488.593 19.9932 488.3C23.0018 488.008 25.4928 487.258 27.4662 486.05C29.4396 484.842 30.8756 483.326 31.7741 481.504C32.6727 479.681 33.0191 477.695 32.8133 475.546C32.6227 473.555 32.0307 471.843 31.0373 470.409C30.0315 468.966 28.7076 467.896 27.0655 467.199C25.4111 466.492 23.5207 466.242 21.3943 466.449L21.5423 465.133L22.543 475.585L18.8106 475.948L17.5435 462.713L21.2759 462.35C24.1374 462.072 26.6842 462.441 28.9162 463.457C31.1471 464.462 32.9474 465.976 34.317 468.001C35.6743 470.016 36.485 472.403 36.7493 475.163C37.0439 478.24 36.5788 481.014 35.3542 483.485C34.1285 485.944 32.2433 487.954 29.6986 489.515C27.1528 491.064 24.0477 492.016 20.3831 492.373C17.6347 492.64 15.1282 492.512 12.8636 491.99C10.5866 491.458 8.60839 490.589 6.92892 489.382C5.24944 488.175 3.90807 486.684 2.9048 484.909C1.90154 483.134 1.29323 481.133 1.07988 478.904C0.904432 477.072 1.018 475.337 1.42059 473.699C1.81078 472.051 2.44962 470.556 3.33711 469.214C4.21221 467.862 5.30527 466.7 6.6163 465.727C7.91602 464.756 9.39334 464.03 11.0483 463.55L11.4641 467.893Z"/>
<path d="M33.8496 371.677C33.6318 373.035 33.102 374.221 32.2602 375.235C31.4073 376.248 30.366 376.999 29.1364 377.49C27.9086 377.969 26.6161 378.098 25.259 377.877C23.8907 377.654 22.7045 377.121 21.7003 376.278C20.6867 375.422 19.9391 374.379 19.4574 373.15C18.9645 371.918 18.8269 370.623 19.0448 369.266C19.2644 367.897 19.7998 366.712 20.651 365.711C21.4927 364.696 22.5275 363.95 23.7553 363.47C24.9737 362.978 26.2671 362.843 27.6354 363.066C28.9925 363.287 30.1778 363.826 31.1914 364.682C32.2068 365.527 32.9609 366.565 33.4538 367.796C33.9373 369.015 34.0693 370.309 33.8496 371.677Z"/>
<path d="M48.1014 258.03C46.4416 257.513 44.8834 257.727 43.4266 258.669C41.9698 259.612 40.8163 261.051 39.9661 262.986C39.3445 264.401 39.0289 265.741 39.0194 267.006C39.0144 268.261 39.2811 269.363 39.8197 270.312C40.3629 271.251 41.143 271.947 42.16 272.401C43.011 272.781 43.8318 272.904 44.6224 272.771C45.4071 272.624 46.1436 272.318 46.8317 271.853C47.5094 271.384 48.1335 270.854 48.7037 270.262C49.2636 269.666 49.7516 269.106 50.1678 268.582L52.4656 265.725C53.0492 264.99 53.757 264.198 54.5889 263.35C55.4254 262.491 56.3814 261.742 57.457 261.101C58.5267 260.446 59.7101 260.041 61.0072 259.885C62.3043 259.73 63.7001 259.985 65.1946 260.652C66.9173 261.42 68.2752 262.567 69.2682 264.093C70.2658 265.608 70.7951 267.412 70.8563 269.504C70.922 271.587 70.4155 273.856 69.3368 276.311C68.3313 278.6 67.0921 280.417 65.6194 281.764C64.1512 283.1 62.5479 283.952 60.8094 284.322C59.0754 284.68 57.3093 284.533 55.5109 283.881L57.2661 279.886C58.5156 280.318 59.6902 280.357 60.7897 280.001C61.8835 279.631 62.8623 278.985 63.7262 278.064C64.5843 277.128 65.2922 276.025 65.8498 274.756C66.4988 273.278 66.8429 271.845 66.882 270.457C66.9107 269.063 66.6452 267.831 66.0855 266.761C65.5154 265.685 64.6492 264.888 63.4868 264.37C62.4283 263.897 61.4366 263.81 60.5119 264.107C59.5872 264.403 58.7047 264.943 57.8645 265.725C57.0243 266.508 56.2017 267.391 55.3968 268.376L52.5482 271.809C50.7352 273.986 48.8445 275.507 46.8762 276.371C44.9079 277.235 42.8496 277.188 40.7014 276.23C38.9164 275.434 37.5722 274.255 36.6689 272.695C35.7597 271.12 35.2978 269.346 35.2832 267.374C35.2627 265.386 35.7004 263.373 36.5962 261.334C37.5012 259.274 38.6741 257.607 40.1148 256.334C41.5452 255.056 43.0991 254.231 44.7766 253.859C46.4586 253.477 48.1154 253.619 49.7468 254.284L48.1014 258.03Z"/>
<path d="M86.6466 205.865C89.7886 207.785 92.1612 210.013 93.7645 212.55C95.3677 215.087 96.1924 217.728 96.2387 220.473C96.2849 223.217 95.5406 225.865 94.0058 228.416C92.4709 230.968 90.4853 232.857 88.049 234.085C85.6126 235.314 82.9074 235.798 79.9333 235.54C76.9593 235.281 73.9013 234.192 70.7592 232.273C67.6172 230.354 65.2446 228.125 63.6413 225.588C62.0381 223.051 61.2134 220.41 61.1671 217.665C61.1209 214.921 61.8652 212.273 63.4 209.722C64.9349 207.171 66.9205 205.281 69.3568 204.053C71.7932 202.825 74.4984 202.34 77.4725 202.598C80.4465 202.857 83.5045 203.946 86.6466 205.865ZM84.5376 209.371C81.9581 207.795 79.5203 206.899 77.2242 206.681C74.934 206.454 72.8909 206.797 71.0947 207.711C69.3044 208.615 67.8644 209.972 66.7748 211.783C65.6852 213.594 65.1539 215.513 65.1809 217.54C65.2137 219.558 65.8568 221.542 67.1101 223.493C68.3692 225.433 70.2886 227.192 72.8682 228.767C75.4477 230.343 77.8826 231.244 80.1728 231.472C82.4688 231.689 84.512 231.346 86.3023 230.442C88.0985 229.528 89.5414 228.166 90.631 226.355C91.7206 224.544 92.249 222.63 92.2161 220.612C92.1891 218.585 91.5461 216.601 90.2869 214.66C89.0336 212.71 87.1172 210.946 84.5376 209.371Z"/>
<path d="M116.334 195.983L89.1219 174.117L102.112 157.704L105.035 160.053L94.6685 173.151L103.863 180.54L113.257 168.671L116.18 171.02L106.786 182.889L118.958 192.669L116.334 195.983Z"/>
<path d="M125.828 136.613L123.229 133.909L141.968 115.624L144.566 118.328L136.71 125.994L158.302 148.459L155.276 151.412L133.684 128.946L125.828 136.613Z"/>
<path d="M187.777 122.323L159.37 100.007L162.803 97.4258L185.556 115.888L185.829 115.683L174.846 88.3694L178.661 85.5009L201.523 103.881L201.795 103.677L190.704 76.4446L194.137 73.8629L207.285 107.652L203.798 110.275L181.083 92.5513L180.865 92.7153L191.264 119.7L187.777 122.323Z"/>
<path d="M231.402 92.1493L227.548 94.3366L221.664 57.5379L225.459 55.3843L253.639 79.5302L249.785 81.7175L226.375 61.2146L226.137 61.3492L231.402 92.1493ZM226.172 79.4384L241.709 70.6219L243.538 73.8953L228.002 82.7118L226.172 79.4384Z"/>
<path d="M274.444 69.7466L261.429 37.3544L272.351 32.8991C274.876 31.8689 277.122 31.4557 279.09 31.6593C281.054 31.8524 282.725 32.5387 284.106 33.7184C285.486 34.8981 286.559 36.4422 287.326 38.3507C288.093 40.2592 288.384 42.1104 288.198 43.9042C288.013 45.6981 287.285 47.3451 286.014 48.8454C284.739 50.3351 282.849 51.5907 280.345 52.6123L271.506 56.2178L270.083 52.6749L278.795 49.1209C280.521 48.417 281.808 47.5973 282.657 46.662C283.516 45.7223 283.996 44.692 284.097 43.5709C284.203 42.435 283.996 41.2186 283.475 39.9217C282.954 38.6247 282.257 37.5899 281.383 36.8173C280.509 36.0447 279.435 35.6115 278.16 35.5178C276.882 35.4135 275.369 35.7177 273.622 36.4302L266.741 39.2373L278.358 68.1499L274.444 69.7466ZM283.812 48.9888L297.613 60.2951L293.068 62.1493L279.393 50.7916L283.812 48.9888Z"/>
<path d="M323.614 51.7598L314.822 17.976L335.191 12.5939L336.136 16.223L319.854 20.5252L322.824 31.9404L338.052 27.9169L338.996 31.5461L323.769 35.5696L326.757 47.0508L343.303 42.6789L344.247 46.308L323.614 51.7598Z"/>
<path d="M424.82 35.9091V1H445.888V4.75H429.047V16.5455H444.797V20.2955H429.047V32.1591H446.161V35.9091H424.82Z"/>
<path d="M506.557 6.69043L502.126 41.3172L498.069 40.7901L482.684 11.1519L482.346 11.108L478.867 38.2954L474.675 37.7508L479.106 3.12405L483.163 3.6511L498.607 33.3657L498.945 33.4096L502.432 6.1546L506.557 6.69043Z"/>
<path d="M554.65 29.1535C554.576 27.9469 554.357 26.8254 553.993 25.7889C553.643 24.7442 553.142 23.8011 552.492 22.9594C551.854 22.1206 551.066 21.4013 550.13 20.8014C549.194 20.2015 548.117 19.7405 546.897 19.4182C544.898 18.8899 542.945 18.9263 541.039 19.5275C539.133 20.1287 537.435 21.3079 535.944 23.0649C534.453 24.822 533.327 27.1631 532.566 30.0884C531.805 33.0137 531.651 35.6118 532.105 37.8826C532.559 40.1535 533.487 42.0265 534.888 43.5015C536.289 44.9765 538.033 45.9897 540.12 46.5413C542.054 47.0522 543.864 47.0898 545.551 46.654C547.252 46.2101 548.712 45.3382 549.931 44.0383C551.163 42.7303 552.049 41.0425 552.587 38.975L553.771 39.5699L543.619 36.8876L544.563 33.2584L557.418 36.6549L556.473 40.284C555.749 43.0663 554.526 45.329 552.805 47.072C551.094 48.8179 549.053 49.9828 546.682 50.5669C544.324 51.1429 541.805 51.0767 539.124 50.3684C536.136 49.5788 533.693 48.1811 531.796 46.1755C529.911 44.1727 528.674 41.7067 528.086 38.7775C527.509 35.8512 527.684 32.6065 528.611 29.0433C529.306 26.371 530.289 24.0624 531.558 22.1176C532.841 20.1648 534.338 18.6092 536.049 17.4509C537.759 16.2926 539.62 15.5501 541.631 15.2234C543.641 14.8967 545.729 15.0193 547.893 15.5912C549.673 16.0614 551.262 16.7692 552.66 17.7145C554.072 18.6517 555.254 19.7693 556.208 21.0674C557.176 22.3574 557.89 23.7862 558.351 25.3536C558.815 26.9101 558.987 28.5483 558.869 30.2682L554.65 29.1535Z"/>
<path d="M600.091 33.9473L587.076 66.3394L583.162 64.7427L596.177 32.3505L600.091 33.9473Z"/>
<path d="M662.339 65.5557L645.307 96.0279L641.749 94.0089L638.578 60.6948L638.281 60.5265L624.908 84.452L621.232 82.3656L638.264 51.8934L641.822 53.9124L645.019 87.3197L645.316 87.4879L658.722 63.503L662.339 65.5557Z"/>
<path d="M666.082 110.28L686.86 82.2279L703.698 94.8904L701.466 97.9038L688.006 87.782L680.986 97.2606L693.574 106.727L691.342 109.74L678.754 100.274L671.693 109.807L685.37 120.093L683.138 123.107L666.082 110.28Z"/>
<path d="M705.852 142.878L730.042 117.71L745.121 132.424L742.522 135.127L730.469 123.366L722.296 131.87L733.568 142.87L730.969 145.573L719.697 134.574L711.476 143.127L723.724 155.079L721.126 157.783L705.852 142.878Z"/>
<path d="M740.518 179.53L767.73 157.664L775.05 166.913C776.743 169.052 777.769 171.099 778.128 173.055C778.497 175.004 778.313 176.813 777.577 178.483C776.841 180.153 775.672 181.633 774.068 182.921C772.465 184.209 770.782 185.022 769.02 185.359C767.258 185.696 765.483 185.468 763.696 184.674C761.917 183.873 760.188 182.412 758.51 180.291L752.586 172.807L755.562 170.415L761.402 177.793C762.558 179.254 763.702 180.26 764.832 180.809C765.97 181.367 767.087 181.534 768.184 181.308C769.296 181.085 770.398 180.535 771.487 179.66C772.577 178.784 773.367 177.814 773.857 176.749C774.348 175.685 774.458 174.524 774.189 173.268C773.929 172.005 773.213 170.634 772.042 169.155L767.43 163.328L743.141 182.845L740.518 179.53ZM762.939 182.592L756.047 199.151L753 195.302L759.977 178.85L762.939 182.592Z"/>
<path d="M807.863 275.526C807.31 274.268 807.111 272.981 807.266 271.668C807.432 270.35 807.896 269.147 808.66 268.06C809.428 266.983 810.44 266.165 811.696 265.605C812.962 265.04 814.243 264.835 815.541 264.991C816.853 265.152 818.043 265.617 819.113 266.384C820.192 267.147 821.009 268.157 821.562 269.416C822.12 270.685 822.313 271.974 822.143 273.282C821.988 274.595 821.526 275.79 820.758 276.867C820.005 277.95 818.995 278.773 817.729 279.338C816.473 279.898 815.189 280.097 813.877 279.936C812.57 279.785 811.376 279.328 810.297 278.566C809.232 277.809 808.42 276.796 807.863 275.526Z"/>
<path d="M856.104 385.793L855.435 381.619C856.595 381.177 857.58 380.573 858.39 379.808C859.201 379.054 859.845 378.189 860.321 377.214C860.811 376.248 861.128 375.211 861.273 374.106C861.417 373 861.398 371.875 861.214 370.73C860.88 368.643 860.049 366.839 858.723 365.316C857.399 363.805 855.63 362.717 853.417 362.053C851.206 361.4 848.609 361.316 845.626 361.802C842.643 362.288 840.204 363.192 838.31 364.514C836.417 365.847 835.079 367.441 834.295 369.295C833.512 371.161 833.289 373.138 833.624 375.225C833.807 376.369 834.141 377.443 834.624 378.447C835.107 379.45 835.727 380.334 836.482 381.097C837.251 381.87 838.138 382.485 839.143 382.943C840.162 383.411 841.286 383.671 842.514 383.724L843.184 387.898C841.373 387.871 839.705 387.555 838.181 386.951C836.657 386.348 835.308 385.508 834.134 384.433C832.972 383.356 832.015 382.09 831.263 380.635C830.514 379.191 830 377.6 829.72 375.861C829.249 372.921 829.547 370.19 830.615 367.667C831.684 365.144 833.436 363.011 835.872 361.267C838.309 359.523 841.344 358.355 844.978 357.763C848.612 357.171 851.857 357.316 854.715 358.197C857.573 359.079 859.903 360.547 861.706 362.602C863.509 364.657 864.646 367.155 865.117 370.094C865.397 371.833 865.406 373.507 865.146 375.115C864.888 376.735 864.37 378.241 863.593 379.634C862.826 381.025 861.814 382.249 860.556 383.306C859.31 384.361 857.826 385.19 856.104 385.793Z"/>
<path d="M869.381 410.568L869.535 415.407L853.557 425.61L853.57 426.019L870.164 435.169L870.318 440.008L849.405 428.064L835.026 428.528L834.892 424.303L849.271 423.838L869.381 410.568Z"/>
<path d="M834.41 466.743L869.155 470.12L867.992 482.269C867.76 484.69 867.151 486.646 866.163 488.137C865.187 489.629 863.961 490.691 862.485 491.324C861.02 491.958 859.439 492.193 857.743 492.028C856.25 491.883 855.042 491.497 854.121 490.871C853.198 490.256 852.495 489.491 852.011 488.577C851.527 487.673 851.197 486.711 851.021 485.689L850.682 485.656C850.512 486.713 850.036 487.745 849.255 488.754C848.473 489.763 847.414 490.567 846.078 491.168C844.742 491.769 843.158 491.98 841.326 491.802C839.584 491.633 838.056 491.085 836.74 490.158C835.425 489.231 834.442 487.873 833.791 486.086C833.14 484.299 832.946 482.037 833.208 479.299L834.41 466.743ZM837.74 471.314L836.94 479.662C836.677 482.411 837.022 484.414 837.975 485.671C838.937 486.94 840.182 487.649 841.709 487.798C842.886 487.912 844 487.718 845.053 487.215C846.117 486.713 847.002 485.937 847.707 484.887C848.424 483.838 848.855 482.555 849 481.04L849.819 472.488L837.74 471.314ZM853.483 472.844L852.736 480.649C852.615 481.916 852.754 483.083 853.155 484.149C853.554 485.227 854.177 486.11 855.024 486.797C855.871 487.496 856.905 487.905 858.126 488.024C859.653 488.172 860.999 487.766 862.164 486.806C863.34 485.847 864.039 484.214 864.26 481.906L865.02 473.965L853.483 472.844Z"/>
<path d="M827.421 519.231L861.442 527.055L856.787 547.602L853.133 546.762L856.853 530.337L845.358 527.693L841.878 543.054L838.224 542.214L841.703 526.853L830.141 524.194L826.361 540.885L822.706 540.044L827.421 519.231Z"/>
<path d="M814.485 568.226L847.216 580.363L843.169 591.443C842.234 594.005 841.029 595.946 839.555 597.265C838.091 598.589 836.459 599.366 834.657 599.594C832.856 599.823 830.991 599.58 829.062 598.865C827.134 598.15 825.568 597.121 824.365 595.778C823.162 594.435 822.432 592.789 822.176 590.84C821.931 588.894 822.272 586.651 823.2 584.111L826.475 575.145L830.055 576.472L826.827 585.31C826.188 587.061 825.929 588.565 826.05 589.822C826.168 591.09 826.608 592.137 827.37 592.965C828.139 593.808 829.179 594.472 830.489 594.958C831.8 595.444 833.035 595.623 834.194 595.496C835.354 595.368 836.397 594.864 837.324 593.984C838.261 593.107 839.053 591.783 839.7 590.011L842.25 583.03L813.034 572.197L814.485 568.226ZM823.551 589.113L805.9 591.73L807.584 587.119L825.188 584.63L823.551 589.113Z"/>
<path d="M809.489 645.293C811.112 645.915 812.681 645.802 814.194 644.954C815.708 644.107 816.951 642.745 817.923 640.868C818.633 639.495 819.034 638.178 819.124 636.916C819.209 635.664 819.013 634.547 818.537 633.565C818.055 632.593 817.321 631.847 816.335 631.329C815.51 630.896 814.699 630.72 813.902 630.801C813.11 630.898 812.355 631.156 811.639 631.576C810.933 632.001 810.277 632.49 809.67 633.044C809.073 633.603 808.55 634.131 808.102 634.627L805.627 637.331C804.997 638.027 804.241 638.772 803.357 639.565C802.467 640.369 801.465 641.055 800.352 641.625C799.242 642.21 798.036 642.539 796.732 642.611C795.428 642.683 794.051 642.338 792.603 641.577C790.933 640.699 789.652 639.467 788.758 637.88C787.86 636.304 787.447 634.469 787.52 632.377C787.587 630.294 788.237 628.062 789.47 625.68C790.62 623.46 791.972 621.725 793.528 620.476C795.078 619.237 796.732 618.489 798.49 618.232C800.243 617.985 801.996 618.245 803.748 619.013L801.742 622.888C800.523 622.375 799.353 622.261 798.234 622.546C797.119 622.845 796.101 623.427 795.18 624.291C794.264 625.17 793.488 626.226 792.85 627.457C792.108 628.89 791.673 630.298 791.546 631.681C791.428 633.07 791.614 634.317 792.104 635.422C792.604 636.532 793.418 637.383 794.544 637.976C795.57 638.515 796.554 638.666 797.496 638.429C798.437 638.193 799.352 637.711 800.24 636.984C801.128 636.257 802.006 635.428 802.872 634.496L805.933 631.253C807.881 629.196 809.864 627.799 811.883 627.063C813.902 626.327 815.953 626.507 818.035 627.601C819.765 628.511 821.031 629.773 821.833 631.388C822.639 633.019 822.986 634.819 822.875 636.789C822.769 638.774 822.203 640.756 821.179 642.734C820.145 644.732 818.868 646.32 817.349 647.499C815.841 648.683 814.238 649.406 812.54 649.669C810.838 649.943 809.194 649.695 807.608 648.926L809.489 645.293Z"/>
<path d="M769.263 661.972L797.823 682.046L785.831 699.368L782.763 697.212L792.349 683.365L782.699 676.583L773.734 689.532L770.666 687.376L779.631 674.426L769.925 667.604L760.184 681.675L757.116 679.519L769.263 661.972Z"/>
<path d="M738.626 737.391L741.456 734.251C742.521 734.886 743.602 735.282 744.699 735.439C745.789 735.605 746.861 735.569 747.916 735.333C748.971 735.112 749.974 734.713 750.924 734.134C751.873 733.556 752.736 732.836 753.512 731.975C754.927 730.405 755.815 728.622 756.176 726.626C756.529 724.639 756.277 722.568 755.42 720.412C754.556 718.266 753.008 716.172 750.778 714.132C748.548 712.091 746.332 710.74 744.128 710.079C741.917 709.426 739.846 709.373 737.917 709.918C735.98 710.471 734.304 711.533 732.889 713.103C732.113 713.964 731.485 714.898 731.005 715.907C730.524 716.915 730.222 717.955 730.097 719.027C729.973 720.115 730.045 721.198 730.313 722.275C730.582 723.368 731.078 724.414 731.799 725.413L728.969 728.553C727.865 727.112 727.076 725.604 726.599 724.028C726.122 722.452 725.938 720.866 726.045 719.27C726.161 717.682 726.552 716.137 727.217 714.635C727.874 713.142 728.793 711.742 729.972 710.433C731.965 708.222 734.274 706.746 736.9 706.006C739.525 705.266 742.271 705.307 745.14 706.13C748.009 706.953 750.801 708.607 753.517 711.093C756.233 713.578 758.136 716.22 759.224 719.018C760.312 721.816 760.617 724.567 760.138 727.271C759.659 729.975 758.423 732.433 756.43 734.644C755.251 735.953 753.955 737.008 752.543 737.811C751.123 738.622 749.631 739.158 748.064 739.42C746.506 739.688 744.926 739.659 743.324 739.333C741.73 739.014 740.164 738.366 738.626 737.391Z"/>
<path d="M707.861 780.419L704.652 783.172L689.735 765.516C688.195 763.693 687.247 761.699 686.891 759.534C686.533 757.386 686.778 755.237 687.625 753.088C688.48 750.948 689.946 748.986 692.025 747.203C694.104 745.42 696.26 744.274 698.493 743.766C700.733 743.266 702.882 743.362 704.939 744.053C706.994 744.76 708.792 746.025 710.332 747.848L725.249 765.504L722.04 768.256L707.343 750.861C706.243 749.559 704.98 748.644 703.552 748.117C702.132 747.598 700.651 747.499 699.107 747.82C697.562 748.157 696.052 748.959 694.577 750.224C693.102 751.489 692.076 752.863 691.5 754.346C690.93 755.837 690.79 757.327 691.08 758.815C691.369 760.319 692.064 761.722 693.164 763.024L707.861 780.419Z"/>
<path d="M662.479 771.076L681.421 800.399L671.558 806.868C669.278 808.364 667.153 809.2 665.184 809.377C663.221 809.564 661.45 809.21 659.872 808.316C658.293 807.422 656.945 806.111 655.829 804.383C654.713 802.655 654.075 800.893 653.915 799.095C653.755 797.298 654.155 795.54 655.116 793.823C656.082 792.116 657.696 790.52 659.958 789.037L667.94 783.802L670.012 787.009L662.144 792.169C660.585 793.191 659.479 794.243 658.825 795.325C658.161 796.412 657.887 797.516 658.002 798.637C658.114 799.773 658.549 800.928 659.307 802.102C660.065 803.276 660.947 804.159 661.951 804.75C662.956 805.342 664.092 805.561 665.36 805.409C666.634 805.267 668.06 804.678 669.637 803.643L675.852 799.567L658.944 773.395L662.479 771.076ZM657.248 793.26L641.555 784.8L645.66 782.107L661.239 790.643L657.248 793.26Z"/>
<path d="M621.727 835.053L606.674 803.556L610.477 801.711L625.53 833.207L621.727 835.053Z"/>
<path d="M583.223 847.571L584.397 851.133L559.568 859.439L558.394 855.878L568.804 852.395L559.053 822.801L563.062 821.46L572.813 851.054L583.223 847.571Z"/>
<path d="M532.55 866.745L527.799 867.677L515.206 853.542L514.805 853.621L508.397 871.485L503.646 872.417L512.129 849.838L509.399 835.713L513.547 834.899L516.278 849.024L532.55 866.745Z"/>
</mask>
<path d="M406.595 848.204C407.967 848.293 409.199 848.708 410.29 849.451C411.381 850.204 412.23 851.17 412.839 852.348C413.435 853.526 413.69 854.801 413.603 856.173C413.514 857.556 413.1 858.788 412.359 859.867C411.607 860.957 410.642 861.8 409.466 862.396C408.288 863.003 407.013 863.262 405.641 863.173C404.258 863.084 403.026 862.663 401.947 861.91C400.856 861.167 400.012 860.207 399.415 859.03C398.806 857.863 398.546 856.588 398.634 855.204C398.721 853.832 399.141 852.601 399.894 851.511C400.635 850.42 401.595 849.571 402.772 848.964C403.937 848.368 405.212 848.114 406.595 848.204Z" fill="black"/>
<path d="M291.388 853.109L287.379 851.768L295.189 828.067C295.886 825.951 296.866 824.284 298.129 823.065C299.392 821.846 300.856 821.089 302.52 820.795C304.184 820.501 305.976 820.675 307.894 821.317C309.704 821.923 311.207 822.791 312.402 823.922C313.593 825.063 314.39 826.384 314.793 827.885C315.196 829.386 315.118 830.983 314.559 832.678L310.615 831.358C310.925 830.419 310.963 829.521 310.731 828.665C310.484 827.816 310.016 827.06 309.325 826.397C308.634 825.734 307.766 825.228 306.72 824.879C305.567 824.493 304.506 824.408 303.538 824.623C302.57 824.838 301.721 825.345 300.991 826.143C300.247 826.949 299.649 828.037 299.198 829.408L291.388 853.109Z" fill="black"/>
<path d="M268.748 806.249L272.735 808.184L246.15 834.084L242.224 832.179L245.745 795.087L249.732 797.021L246.446 828.089L246.691 828.208L268.748 806.249ZM261.396 817.838L245.324 810.039L246.941 806.656L263.013 814.454L261.396 817.838Z" fill="black"/>
<path d="M184.266 797.653L203.209 768.33L206.63 770.574L207.663 804.03L207.948 804.217L222.821 781.194L226.356 783.512L207.413 812.835L203.993 810.591L202.939 777.041L202.654 776.854L187.744 799.934L184.266 797.653Z" fill="black"/>
<path d="M112.897 717.031C112.302 718.084 111.874 719.145 111.614 720.215C111.338 721.284 111.243 722.349 111.328 723.411C111.406 724.464 111.672 725.499 112.129 726.514C112.585 727.529 113.235 728.505 114.079 729.442C115.464 730.978 117.117 732.015 119.039 732.551C120.96 733.088 123.023 733.026 125.227 732.365C127.43 731.703 129.647 730.353 131.877 728.312C134.107 726.271 135.651 724.174 136.508 722.018C137.365 719.863 137.609 717.784 137.241 715.779C136.872 713.775 135.965 711.971 134.52 710.368C133.181 708.882 131.687 707.861 130.039 707.306C128.375 706.749 126.679 706.684 124.951 707.109C123.208 707.534 121.548 708.467 119.972 709.91L119.306 708.763L126.336 716.563L123.569 719.094L114.668 709.218L117.434 706.687C119.555 704.746 121.81 703.514 124.2 702.991C126.582 702.46 128.923 702.597 131.225 703.402C133.51 704.206 135.581 705.638 137.437 707.698C139.507 709.994 140.788 712.502 141.282 715.223C141.769 717.935 141.461 720.682 140.357 723.463C139.246 726.236 137.332 728.865 134.616 731.351C132.579 733.215 130.5 734.617 128.379 735.557C126.242 736.495 124.143 736.984 122.081 737.022C120.02 737.06 118.059 736.667 116.2 735.843C114.34 735.018 112.661 733.775 111.162 732.112C109.929 730.744 108.986 729.282 108.332 727.724C107.661 726.166 107.281 724.581 107.19 722.97C107.083 721.357 107.264 719.767 107.732 718.199C108.192 716.639 108.94 715.169 109.976 713.789L112.897 717.031Z" fill="black"/>
<path d="M111.072 677.083L113.594 680.727L77.7381 690.261L75.2544 686.674L96.5184 656.06L99.041 659.704L80.9369 685.18L81.0922 685.404L111.072 677.083ZM98.984 683.579L88.8161 668.891L91.8841 666.735L102.052 681.422L98.984 683.579Z" fill="black"/>
<path d="M84.9892 635.874L54.0893 652.117L48.6659 641.643C47.412 639.221 46.7951 637.016 46.8153 635.028C46.8254 633.046 47.3513 631.306 48.393 629.808C49.4346 628.311 50.8658 627.083 52.6864 626.126C54.507 625.169 56.3147 624.694 58.1095 624.701C59.9044 624.707 61.6038 625.271 63.2079 626.392C64.8019 627.518 66.2207 629.282 67.4642 631.684L71.853 640.16L68.4734 641.937L64.1472 633.581C63.2903 631.926 62.3593 630.721 61.354 629.966C60.3434 629.201 59.2781 628.823 58.1578 628.835C57.0222 628.841 55.8359 629.169 54.5987 629.82C53.3614 630.47 52.4003 631.271 51.7153 632.221C51.0302 633.172 50.7001 634.289 50.7249 635.573C50.7396 636.862 51.1806 638.344 52.0479 640.019L55.465 646.618L83.0455 632.12L84.9892 635.874ZM63.5533 628.579L73.4841 613.653L75.7412 618.012L65.7477 632.817L63.5533 628.579Z" fill="black"/>
<path d="M36.7674 568.115C40.2195 566.835 43.4309 566.353 46.4016 566.67C49.3722 566.986 51.937 567.98 54.0961 569.652C56.2552 571.324 57.8454 573.558 58.8668 576.354C59.8882 579.151 60.1147 581.891 59.5461 584.574C58.9776 587.257 57.6642 589.69 55.6058 591.871C53.5474 594.052 50.7921 595.783 47.34 597.063C43.8879 598.343 40.6765 598.825 37.7059 598.508C34.7352 598.192 32.1704 597.198 30.0113 595.526C27.8522 593.854 26.262 591.62 25.2406 588.823C24.2192 586.027 23.9928 583.287 24.5613 580.604C25.1298 577.921 26.4433 575.488 28.5016 573.307C30.56 571.126 33.3153 569.395 36.7674 568.115ZM38.1709 571.958C35.3367 573.009 33.1182 574.371 31.5154 576.044C29.9086 577.706 28.8988 579.529 28.4859 581.512C28.0691 583.484 28.2233 585.463 28.9484 587.449C29.6735 589.434 30.8312 591.047 32.4214 592.287C34.0077 593.517 35.9493 594.245 38.246 594.472C40.5389 594.689 43.1024 594.271 45.9366 593.22C48.7707 592.169 50.9912 590.813 52.5979 589.15C54.2008 587.477 55.2106 585.655 55.6273 583.682C56.0402 581.699 55.8841 579.715 55.159 577.729C54.4339 575.744 53.2782 574.136 51.6919 572.907C50.1017 571.666 48.1601 570.938 45.8672 570.722C43.5705 570.495 41.005 570.907 38.1709 571.958Z" fill="black"/>
<path d="M7.10077 521.181L41.1217 513.356L42.0255 517.346L19.5163 542.042L19.5916 542.375L46.3034 536.231L47.2373 540.354L13.2163 548.178L12.3125 544.189L34.8731 519.411L34.7978 519.078L8.0196 525.237L7.10077 521.181Z" fill="black"/>
<path d="M11.4641 467.893C10.3575 468.378 9.38104 468.969 8.5347 469.668C7.67596 470.357 6.96432 471.151 6.39977 472.051C5.83414 472.939 5.43203 473.926 5.19344 475.011C4.95485 476.096 4.89566 477.266 5.01587 478.522C5.21298 480.58 5.9238 482.401 7.14834 483.983C8.37288 485.565 10.0677 486.753 12.2328 487.548C14.3979 488.342 16.9847 488.593 19.9932 488.3C23.0018 488.008 25.4928 487.258 27.4662 486.05C29.4396 484.842 30.8756 483.326 31.7741 481.504C32.6727 479.681 33.0191 477.695 32.8133 475.546C32.6227 473.555 32.0307 471.843 31.0373 470.409C30.0315 468.966 28.7076 467.896 27.0655 467.199C25.4111 466.492 23.5207 466.242 21.3943 466.449L21.5423 465.133L22.543 475.585L18.8106 475.948L17.5435 462.713L21.2759 462.35C24.1374 462.072 26.6842 462.441 28.9162 463.457C31.1471 464.462 32.9474 465.976 34.317 468.001C35.6743 470.016 36.485 472.403 36.7493 475.163C37.0439 478.24 36.5788 481.014 35.3542 483.485C34.1285 485.944 32.2433 487.954 29.6986 489.515C27.1528 491.064 24.0477 492.016 20.3831 492.373C17.6347 492.64 15.1282 492.512 12.8636 491.99C10.5866 491.458 8.60839 490.589 6.92892 489.382C5.24944 488.175 3.90807 486.684 2.9048 484.909C1.90154 483.134 1.29323 481.133 1.07988 478.904C0.904432 477.072 1.018 475.337 1.42059 473.699C1.81078 472.051 2.44962 470.556 3.33711 469.214C4.21221 467.862 5.30527 466.7 6.6163 465.727C7.91602 464.756 9.39334 464.03 11.0483 463.55L11.4641 467.893Z" fill="black"/>
<path d="M33.8496 371.677C33.6318 373.035 33.102 374.221 32.2602 375.235C31.4073 376.248 30.366 376.999 29.1364 377.49C27.9086 377.969 26.6161 378.098 25.259 377.877C23.8907 377.654 22.7045 377.121 21.7003 376.278C20.6867 375.422 19.9391 374.379 19.4574 373.15C18.9645 371.918 18.8269 370.623 19.0448 369.266C19.2644 367.897 19.7998 366.712 20.651 365.711C21.4927 364.696 22.5275 363.95 23.7553 363.47C24.9737 362.978 26.2671 362.843 27.6354 363.066C28.9925 363.287 30.1778 363.826 31.1914 364.682C32.2068 365.527 32.9609 366.565 33.4538 367.796C33.9373 369.015 34.0693 370.309 33.8496 371.677Z" fill="black"/>
<path d="M48.1014 258.03C46.4416 257.513 44.8834 257.727 43.4266 258.669C41.9698 259.612 40.8163 261.051 39.9661 262.986C39.3445 264.401 39.0289 265.741 39.0194 267.006C39.0144 268.261 39.2811 269.363 39.8197 270.312C40.3629 271.251 41.143 271.947 42.16 272.401C43.011 272.781 43.8318 272.904 44.6224 272.771C45.4071 272.624 46.1436 272.318 46.8317 271.853C47.5094 271.384 48.1335 270.854 48.7037 270.262C49.2636 269.666 49.7516 269.106 50.1678 268.582L52.4656 265.725C53.0492 264.99 53.757 264.198 54.5889 263.35C55.4254 262.491 56.3814 261.742 57.457 261.101C58.5267 260.446 59.7101 260.041 61.0072 259.885C62.3043 259.73 63.7001 259.985 65.1946 260.652C66.9173 261.42 68.2752 262.567 69.2682 264.093C70.2658 265.608 70.7951 267.412 70.8563 269.504C70.922 271.587 70.4155 273.856 69.3368 276.311C68.3313 278.6 67.0921 280.417 65.6194 281.764C64.1512 283.1 62.5479 283.952 60.8094 284.322C59.0754 284.68 57.3093 284.533 55.5109 283.881L57.2661 279.886C58.5156 280.318 59.6902 280.357 60.7897 280.001C61.8835 279.631 62.8623 278.985 63.7262 278.064C64.5843 277.128 65.2922 276.025 65.8498 274.756C66.4988 273.278 66.8429 271.845 66.882 270.457C66.9107 269.063 66.6452 267.831 66.0855 266.761C65.5154 265.685 64.6492 264.888 63.4868 264.37C62.4283 263.897 61.4366 263.81 60.5119 264.107C59.5872 264.403 58.7047 264.943 57.8645 265.725C57.0243 266.508 56.2017 267.391 55.3968 268.376L52.5482 271.809C50.7352 273.986 48.8445 275.507 46.8762 276.371C44.9079 277.235 42.8496 277.188 40.7014 276.23C38.9164 275.434 37.5722 274.255 36.6689 272.695C35.7597 271.12 35.2978 269.346 35.2832 267.374C35.2627 265.386 35.7004 263.373 36.5962 261.334C37.5012 259.274 38.6741 257.607 40.1148 256.334C41.5452 255.056 43.0991 254.231 44.7766 253.859C46.4586 253.477 48.1154 253.619 49.7468 254.284L48.1014 258.03Z" fill="black"/>
<path d="M86.6466 205.865C89.7886 207.785 92.1612 210.013 93.7645 212.55C95.3677 215.087 96.1924 217.728 96.2387 220.473C96.2849 223.217 95.5406 225.865 94.0058 228.416C92.4709 230.968 90.4853 232.857 88.049 234.085C85.6126 235.314 82.9074 235.798 79.9333 235.54C76.9593 235.281 73.9013 234.192 70.7592 232.273C67.6172 230.354 65.2446 228.125 63.6413 225.588C62.0381 223.051 61.2134 220.41 61.1671 217.665C61.1209 214.921 61.8652 212.273 63.4 209.722C64.9349 207.171 66.9205 205.281 69.3568 204.053C71.7932 202.825 74.4984 202.34 77.4725 202.598C80.4465 202.857 83.5045 203.946 86.6466 205.865ZM84.5376 209.371C81.9581 207.795 79.5203 206.899 77.2242 206.681C74.934 206.454 72.8909 206.797 71.0947 207.711C69.3044 208.615 67.8644 209.972 66.7748 211.783C65.6852 213.594 65.1539 215.513 65.1809 217.54C65.2137 219.558 65.8568 221.542 67.1101 223.493C68.3692 225.433 70.2886 227.192 72.8682 228.767C75.4477 230.343 77.8826 231.244 80.1728 231.472C82.4688 231.689 84.512 231.346 86.3023 230.442C88.0985 229.528 89.5414 228.166 90.631 226.355C91.7206 224.544 92.249 222.63 92.2161 220.612C92.1891 218.585 91.5461 216.601 90.2869 214.66C89.0336 212.71 87.1172 210.946 84.5376 209.371Z" fill="black"/>
<path d="M116.334 195.983L89.1219 174.117L102.112 157.704L105.035 160.053L94.6685 173.151L103.863 180.54L113.257 168.671L116.18 171.02L106.786 182.889L118.958 192.669L116.334 195.983Z" fill="black"/>
<path d="M125.828 136.613L123.229 133.909L141.968 115.624L144.566 118.328L136.71 125.994L158.302 148.459L155.276 151.412L133.684 128.946L125.828 136.613Z" fill="black"/>
<path d="M187.777 122.323L159.37 100.007L162.803 97.4258L185.556 115.888L185.829 115.683L174.846 88.3694L178.661 85.5009L201.523 103.881L201.795 103.677L190.704 76.4446L194.137 73.8629L207.285 107.652L203.798 110.275L181.083 92.5513L180.865 92.7153L191.264 119.7L187.777 122.323Z" fill="black"/>
<path d="M231.402 92.1493L227.548 94.3366L221.664 57.5379L225.459 55.3843L253.639 79.5302L249.785 81.7175L226.375 61.2146L226.137 61.3492L231.402 92.1493ZM226.172 79.4384L241.709 70.6219L243.538 73.8953L228.002 82.7118L226.172 79.4384Z" fill="black"/>
<path d="M274.444 69.7466L261.429 37.3544L272.351 32.8991C274.876 31.8689 277.122 31.4557 279.09 31.6593C281.054 31.8524 282.725 32.5387 284.106 33.7184C285.486 34.8981 286.559 36.4422 287.326 38.3507C288.093 40.2592 288.384 42.1104 288.198 43.9042C288.013 45.6981 287.285 47.3451 286.014 48.8454C284.739 50.3351 282.849 51.5907 280.345 52.6123L271.506 56.2178L270.083 52.6749L278.795 49.1209C280.521 48.417 281.808 47.5973 282.657 46.662C283.516 45.7223 283.996 44.692 284.097 43.5709C284.203 42.435 283.996 41.2186 283.475 39.9217C282.954 38.6247 282.257 37.5899 281.383 36.8173C280.509 36.0447 279.435 35.6115 278.16 35.5178C276.882 35.4135 275.369 35.7177 273.622 36.4302L266.741 39.2373L278.358 68.1499L274.444 69.7466ZM283.812 48.9888L297.613 60.2951L293.068 62.1493L279.393 50.7916L283.812 48.9888Z" fill="black"/>
<path d="M323.614 51.7598L314.822 17.976L335.191 12.5939L336.136 16.223L319.854 20.5252L322.824 31.9404L338.052 27.9169L338.996 31.5461L323.769 35.5696L326.757 47.0508L343.303 42.6789L344.247 46.308L323.614 51.7598Z" fill="black"/>
<path d="M424.82 35.9091V1H445.888V4.75H429.047V16.5455H444.797V20.2955H429.047V32.1591H446.161V35.9091H424.82Z" fill="black"/>
<path d="M506.557 6.69043L502.126 41.3172L498.069 40.7901L482.684 11.1519L482.346 11.108L478.867 38.2954L474.675 37.7508L479.106 3.12405L483.163 3.6511L498.607 33.3657L498.945 33.4096L502.432 6.1546L506.557 6.69043Z" fill="black"/>
<path d="M554.65 29.1535C554.576 27.9469 554.357 26.8254 553.993 25.7889C553.643 24.7442 553.142 23.8011 552.492 22.9594C551.854 22.1206 551.066 21.4013 550.13 20.8014C549.194 20.2015 548.117 19.7405 546.897 19.4182C544.898 18.8899 542.945 18.9263 541.039 19.5275C539.133 20.1287 537.435 21.3079 535.944 23.0649C534.453 24.822 533.327 27.1631 532.566 30.0884C531.805 33.0137 531.651 35.6118 532.105 37.8826C532.559 40.1535 533.487 42.0265 534.888 43.5015C536.289 44.9765 538.033 45.9897 540.12 46.5413C542.054 47.0522 543.864 47.0898 545.551 46.654C547.252 46.2101 548.712 45.3382 549.931 44.0383C551.163 42.7303 552.049 41.0425 552.587 38.975L553.771 39.5699L543.619 36.8876L544.563 33.2584L557.418 36.6549L556.473 40.284C555.749 43.0663 554.526 45.329 552.805 47.072C551.094 48.8179 549.053 49.9828 546.682 50.5669C544.324 51.1429 541.805 51.0767 539.124 50.3684C536.136 49.5788 533.693 48.1811 531.796 46.1755C529.911 44.1727 528.674 41.7067 528.086 38.7775C527.509 35.8512 527.684 32.6065 528.611 29.0433C529.306 26.371 530.289 24.0624 531.558 22.1176C532.841 20.1648 534.338 18.6092 536.049 17.4509C537.759 16.2926 539.62 15.5501 541.631 15.2234C543.641 14.8967 545.729 15.0193 547.893 15.5912C549.673 16.0614 551.262 16.7692 552.66 17.7145C554.072 18.6517 555.254 19.7693 556.208 21.0674C557.176 22.3574 557.89 23.7862 558.351 25.3536C558.815 26.9101 558.987 28.5483 558.869 30.2682L554.65 29.1535Z" fill="black"/>
<path d="M600.091 33.9473L587.076 66.3394L583.162 64.7427L596.177 32.3505L600.091 33.9473Z" fill="black"/>
<path d="M662.339 65.5557L645.307 96.0279L641.749 94.0089L638.578 60.6948L638.281 60.5265L624.908 84.452L621.232 82.3656L638.264 51.8934L641.822 53.9124L645.019 87.3197L645.316 87.4879L658.722 63.503L662.339 65.5557Z" fill="black"/>
<path d="M666.082 110.28L686.86 82.2279L703.698 94.8904L701.466 97.9038L688.006 87.782L680.986 97.2606L693.574 106.727L691.342 109.74L678.754 100.274L671.693 109.807L685.37 120.093L683.138 123.107L666.082 110.28Z" fill="black"/>
<path d="M705.852 142.878L730.042 117.71L745.121 132.424L742.522 135.127L730.469 123.366L722.296 131.87L733.568 142.87L730.969 145.573L719.697 134.574L711.476 143.127L723.724 155.079L721.126 157.783L705.852 142.878Z" fill="black"/>
<path d="M740.518 179.53L767.73 157.664L775.05 166.913C776.743 169.052 777.769 171.099 778.128 173.055C778.497 175.004 778.313 176.813 777.577 178.483C776.841 180.153 775.672 181.633 774.068 182.921C772.465 184.209 770.782 185.022 769.02 185.359C767.258 185.696 765.483 185.468 763.696 184.674C761.917 183.873 760.188 182.412 758.51 180.291L752.586 172.807L755.562 170.415L761.402 177.793C762.558 179.254 763.702 180.26 764.832 180.809C765.97 181.367 767.087 181.534 768.184 181.308C769.296 181.085 770.398 180.535 771.487 179.66C772.577 178.784 773.367 177.814 773.857 176.749C774.348 175.685 774.458 174.524 774.189 173.268C773.929 172.005 773.213 170.634 772.042 169.155L767.43 163.328L743.141 182.845L740.518 179.53ZM762.939 182.592L756.047 199.151L753 195.302L759.977 178.85L762.939 182.592Z" fill="black"/>
<path d="M807.863 275.526C807.31 274.268 807.111 272.981 807.266 271.668C807.432 270.35 807.896 269.147 808.66 268.06C809.428 266.983 810.44 266.165 811.696 265.605C812.962 265.04 814.243 264.835 815.541 264.991C816.853 265.152 818.043 265.617 819.113 266.384C820.192 267.147 821.009 268.157 821.562 269.416C822.12 270.685 822.313 271.974 822.143 273.282C821.988 274.595 821.526 275.79 820.758 276.867C820.005 277.95 818.995 278.773 817.729 279.338C816.473 279.898 815.189 280.097 813.877 279.936C812.57 279.785 811.376 279.328 810.297 278.566C809.232 277.809 808.42 276.796 807.863 275.526Z" fill="black"/>
<path d="M856.104 385.793L855.435 381.619C856.595 381.177 857.58 380.573 858.39 379.808C859.201 379.054 859.845 378.189 860.321 377.214C860.811 376.248 861.128 375.211 861.273 374.106C861.417 373 861.398 371.875 861.214 370.73C860.88 368.643 860.049 366.839 858.723 365.316C857.399 363.805 855.63 362.717 853.417 362.053C851.206 361.4 848.609 361.316 845.626 361.802C842.643 362.288 840.204 363.192 838.31 364.514C836.417 365.847 835.079 367.441 834.295 369.295C833.512 371.161 833.289 373.138 833.624 375.225C833.807 376.369 834.141 377.443 834.624 378.447C835.107 379.45 835.727 380.334 836.482 381.097C837.251 381.87 838.138 382.485 839.143 382.943C840.162 383.411 841.286 383.671 842.514 383.724L843.184 387.898C841.373 387.871 839.705 387.555 838.181 386.951C836.657 386.348 835.308 385.508 834.134 384.433C832.972 383.356 832.015 382.09 831.263 380.635C830.514 379.191 830 377.6 829.72 375.861C829.249 372.921 829.547 370.19 830.615 367.667C831.684 365.144 833.436 363.011 835.872 361.267C838.309 359.523 841.344 358.355 844.978 357.763C848.612 357.171 851.857 357.316 854.715 358.197C857.573 359.079 859.903 360.547 861.706 362.602C863.509 364.657 864.646 367.155 865.117 370.094C865.397 371.833 865.406 373.507 865.146 375.115C864.888 376.735 864.37 378.241 863.593 379.634C862.826 381.025 861.814 382.249 860.556 383.306C859.31 384.361 857.826 385.19 856.104 385.793Z" fill="black"/>
<path d="M869.381 410.568L869.535 415.407L853.557 425.61L853.57 426.019L870.164 435.169L870.318 440.008L849.405 428.064L835.026 428.528L834.892 424.303L849.271 423.838L869.381 410.568Z" fill="black"/>
<path d="M834.41 466.743L869.155 470.12L867.992 482.269C867.76 484.69 867.151 486.646 866.163 488.137C865.187 489.629 863.961 490.691 862.485 491.324C861.02 491.958 859.439 492.193 857.743 492.028C856.25 491.883 855.042 491.497 854.121 490.871C853.198 490.256 852.495 489.491 852.011 488.577C851.527 487.673 851.197 486.711 851.021 485.689L850.682 485.656C850.512 486.713 850.036 487.745 849.255 488.754C848.473 489.763 847.414 490.567 846.078 491.168C844.742 491.769 843.158 491.98 841.326 491.802C839.584 491.633 838.056 491.085 836.74 490.158C835.425 489.231 834.442 487.873 833.791 486.086C833.14 484.299 832.946 482.037 833.208 479.299L834.41 466.743ZM837.74 471.314L836.94 479.662C836.677 482.411 837.022 484.414 837.975 485.671C838.937 486.94 840.182 487.649 841.709 487.798C842.886 487.912 844 487.718 845.053 487.215C846.117 486.713 847.002 485.937 847.707 484.887C848.424 483.838 848.855 482.555 849 481.04L849.819 472.488L837.74 471.314ZM853.483 472.844L852.736 480.649C852.615 481.916 852.754 483.083 853.155 484.149C853.554 485.227 854.177 486.11 855.024 486.797C855.871 487.496 856.905 487.905 858.126 488.024C859.653 488.172 860.999 487.766 862.164 486.806C863.34 485.847 864.039 484.214 864.26 481.906L865.02 473.965L853.483 472.844Z" fill="black"/>
<path d="M827.421 519.231L861.442 527.055L856.787 547.602L853.133 546.762L856.853 530.337L845.358 527.693L841.878 543.054L838.224 542.214L841.703 526.853L830.141 524.194L826.361 540.885L822.706 540.044L827.421 519.231Z" fill="black"/>
<path d="M814.485 568.226L847.216 580.363L843.169 591.443C842.234 594.005 841.029 595.946 839.555 597.265C838.091 598.589 836.459 599.366 834.657 599.594C832.856 599.823 830.991 599.58 829.062 598.865C827.134 598.15 825.568 597.121 824.365 595.778C823.162 594.435 822.432 592.789 822.176 590.84C821.931 588.894 822.272 586.651 823.2 584.111L826.475 575.145L830.055 576.472L826.827 585.31C826.188 587.061 825.929 588.565 826.05 589.822C826.168 591.09 826.608 592.137 827.37 592.965C828.139 593.808 829.179 594.472 830.489 594.958C831.8 595.444 833.035 595.623 834.194 595.496C835.354 595.368 836.397 594.864 837.324 593.984C838.261 593.107 839.053 591.783 839.7 590.011L842.25 583.03L813.034 572.197L814.485 568.226ZM823.551 589.113L805.9 591.73L807.584 587.119L825.188 584.63L823.551 589.113Z" fill="black"/>
<path d="M809.489 645.293C811.112 645.915 812.681 645.802 814.194 644.954C815.708 644.107 816.951 642.745 817.923 640.868C818.633 639.495 819.034 638.178 819.124 636.916C819.209 635.664 819.013 634.547 818.537 633.565C818.055 632.593 817.321 631.847 816.335 631.329C815.51 630.896 814.699 630.72 813.902 630.801C813.11 630.898 812.355 631.156 811.639 631.576C810.933 632.001 810.277 632.49 809.67 633.044C809.073 633.603 808.55 634.131 808.102 634.627L805.627 637.331C804.997 638.027 804.241 638.772 803.357 639.565C802.467 640.369 801.465 641.055 800.352 641.625C799.242 642.21 798.036 642.539 796.732 642.611C795.428 642.683 794.051 642.338 792.603 641.577C790.933 640.699 789.652 639.467 788.758 637.88C787.86 636.304 787.447 634.469 787.52 632.377C787.587 630.294 788.237 628.062 789.47 625.68C790.62 623.46 791.972 621.725 793.528 620.476C795.078 619.237 796.732 618.489 798.49 618.232C800.243 617.985 801.996 618.245 803.748 619.013L801.742 622.888C800.523 622.375 799.353 622.261 798.234 622.546C797.119 622.845 796.101 623.427 795.18 624.291C794.264 625.17 793.488 626.226 792.85 627.457C792.108 628.89 791.673 630.298 791.546 631.681C791.428 633.07 791.614 634.317 792.104 635.422C792.604 636.532 793.418 637.383 794.544 637.976C795.57 638.515 796.554 638.666 797.496 638.429C798.437 638.193 799.352 637.711 800.24 636.984C801.128 636.257 802.006 635.428 802.872 634.496L805.933 631.253C807.881 629.196 809.864 627.799 811.883 627.063C813.902 626.327 815.953 626.507 818.035 627.601C819.765 628.511 821.031 629.773 821.833 631.388C822.639 633.019 822.986 634.819 822.875 636.789C822.769 638.774 822.203 640.756 821.179 642.734C820.145 644.732 818.868 646.32 817.349 647.499C815.841 648.683 814.238 649.406 812.54 649.669C810.838 649.943 809.194 649.695 807.608 648.926L809.489 645.293Z" fill="black"/>
<path d="M769.263 661.972L797.823 682.046L785.831 699.368L782.763 697.212L792.349 683.365L782.699 676.583L773.734 689.532L770.666 687.376L779.631 674.426L769.925 667.604L760.184 681.675L757.116 679.519L769.263 661.972Z" fill="black"/>
<path d="M738.626 737.391L741.456 734.251C742.521 734.886 743.602 735.282 744.699 735.439C745.789 735.605 746.861 735.569 747.916 735.333C748.971 735.112 749.974 734.713 750.924 734.134C751.873 733.556 752.736 732.836 753.512 731.975C754.927 730.405 755.815 728.622 756.176 726.626C756.529 724.639 756.277 722.568 755.42 720.412C754.556 718.266 753.008 716.172 750.778 714.132C748.548 712.091 746.332 710.74 744.128 710.079C741.917 709.426 739.846 709.373 737.917 709.918C735.98 710.471 734.304 711.533 732.889 713.103C732.113 713.964 731.485 714.898 731.005 715.907C730.524 716.915 730.222 717.955 730.097 719.027C729.973 720.115 730.045 721.198 730.313 722.275C730.582 723.368 731.078 724.414 731.799 725.413L728.969 728.553C727.865 727.112 727.076 725.604 726.599 724.028C726.122 722.452 725.938 720.866 726.045 719.27C726.161 717.682 726.552 716.137 727.217 714.635C727.874 713.142 728.793 711.742 729.972 710.433C731.965 708.222 734.274 706.746 736.9 706.006C739.525 705.266 742.271 705.307 745.14 706.13C748.009 706.953 750.801 708.607 753.517 711.093C756.233 713.578 758.136 716.22 759.224 719.018C760.312 721.816 760.617 724.567 760.138 727.271C759.659 729.975 758.423 732.433 756.43 734.644C755.251 735.953 753.955 737.008 752.543 737.811C751.123 738.622 749.631 739.158 748.064 739.42C746.506 739.688 744.926 739.659 743.324 739.333C741.73 739.014 740.164 738.366 738.626 737.391Z" fill="black"/>
<path d="M707.861 780.419L704.652 783.172L689.735 765.516C688.195 763.693 687.247 761.699 686.891 759.534C686.533 757.386 686.778 755.237 687.625 753.088C688.48 750.948 689.946 748.986 692.025 747.203C694.104 745.42 696.26 744.274 698.493 743.766C700.733 743.266 702.882 743.362 704.939 744.053C706.994 744.76 708.792 746.025 710.332 747.848L725.249 765.504L722.04 768.256L707.343 750.861C706.243 749.559 704.98 748.644 703.552 748.117C702.132 747.598 700.651 747.499 699.107 747.82C697.562 748.157 696.052 748.959 694.577 750.224C693.102 751.489 692.076 752.863 691.5 754.346C690.93 755.837 690.79 757.327 691.08 758.815C691.369 760.319 692.064 761.722 693.164 763.024L707.861 780.419Z" fill="black"/>
<path d="M662.479 771.076L681.421 800.399L671.558 806.868C669.278 808.364 667.153 809.2 665.184 809.377C663.221 809.564 661.45 809.21 659.872 808.316C658.293 807.422 656.945 806.111 655.829 804.383C654.713 802.655 654.075 800.893 653.915 799.095C653.755 797.298 654.155 795.54 655.116 793.823C656.082 792.116 657.696 790.52 659.958 789.037L667.94 783.802L670.012 787.009L662.144 792.169C660.585 793.191 659.479 794.243 658.825 795.325C658.161 796.412 657.887 797.516 658.002 798.637C658.114 799.773 658.549 800.928 659.307 802.102C660.065 803.276 660.947 804.159 661.951 804.75C662.956 805.342 664.092 805.561 665.36 805.409C666.634 805.267 668.06 804.678 669.637 803.643L675.852 799.567L658.944 773.395L662.479 771.076ZM657.248 793.26L641.555 784.8L645.66 782.107L661.239 790.643L657.248 793.26Z" fill="black"/>
<path d="M621.727 835.053L606.674 803.556L610.477 801.711L625.53 833.207L621.727 835.053Z" fill="black"/>
<path d="M583.223 847.571L584.397 851.133L559.568 859.439L558.394 855.878L568.804 852.395L559.053 822.801L563.062 821.46L572.813 851.054L583.223 847.571Z" fill="black"/>
<path d="M532.55 866.745L527.799 867.677L515.206 853.542L514.805 853.621L508.397 871.485L503.646 872.417L512.129 849.838L509.399 835.713L513.547 834.899L516.278 849.024L532.55 866.745Z" fill="black"/>
<path d="M406.595 848.204C407.967 848.293 409.199 848.708 410.29 849.451C411.381 850.204 412.23 851.17 412.839 852.348C413.435 853.526 413.69 854.801 413.603 856.173C413.514 857.556 413.1 858.788 412.359 859.867C411.607 860.957 410.642 861.8 409.466 862.396C408.288 863.003 407.013 863.262 405.641 863.173C404.258 863.084 403.026 862.663 401.947 861.91C400.856 861.167 400.012 860.207 399.415 859.03C398.806 857.863 398.546 856.588 398.634 855.204C398.721 853.832 399.141 852.601 399.894 851.511C400.635 850.42 401.595 849.571 402.772 848.964C403.937 848.368 405.212 848.114 406.595 848.204Z" stroke="black" stroke-width="2" mask="url(#path-1-outside-1_1782_123)"/>
<path d="M291.388 853.109L287.379 851.768L295.189 828.067C295.886 825.951 296.866 824.284 298.129 823.065C299.392 821.846 300.856 821.089 302.52 820.795C304.184 820.501 305.976 820.675 307.894 821.317C309.704 821.923 311.207 822.791 312.402 823.922C313.593 825.063 314.39 826.384 314.793 827.885C315.196 829.386 315.118 830.983 314.559 832.678L310.615 831.358C310.925 830.419 310.963 829.521 310.731 828.665C310.484 827.816 310.016 827.06 309.325 826.397C308.634 825.734 307.766 825.228 306.72 824.879C305.567 824.493 304.506 824.408 303.538 824.623C302.57 824.838 301.721 825.345 300.991 826.143C300.247 826.949 299.649 828.037 299.198 829.408L291.388 853.109Z" stroke="black" stroke-width="2" mask="url(#path-1-outside-1_1782_123)"/>
<path d="M268.748 806.249L272.735 808.184L246.15 834.084L242.224 832.179L245.745 795.087L249.732 797.021L246.446 828.089L246.691 828.208L268.748 806.249ZM261.396 817.838L245.324 810.039L246.941 806.656L263.013 814.454L261.396 817.838Z" stroke="black" stroke-width="2" mask="url(#path-1-outside-1_1782_123)"/>
<path d="M184.266 797.653L203.209 768.33L206.63 770.574L207.663 804.03L207.948 804.217L222.821 781.194L226.356 783.512L207.413 812.835L203.993 810.591L202.939 777.041L202.654 776.854L187.744 799.934L184.266 797.653Z" stroke="black" stroke-width="2" mask="url(#path-1-outside-1_1782_123)"/>
<path d="M112.897 717.031C112.302 718.084 111.874 719.145 111.614 720.215C111.338 721.284 111.243 722.349 111.328 723.411C111.406 724.464 111.672 725.499 112.129 726.514C112.585 727.529 113.235 728.505 114.079 729.442C115.464 730.978 117.117 732.015 119.039 732.551C120.96 733.088 123.023 733.026 125.227 732.365C127.43 731.703 129.647 730.353 131.877 728.312C134.107 726.271 135.651 724.174 136.508 722.018C137.365 719.863 137.609 717.784 137.241 715.779C136.872 713.775 135.965 711.971 134.52 710.368C133.181 708.882 131.687 707.861 130.039 707.306C128.375 706.749 126.679 706.684 124.951 707.109C123.208 707.534 121.548 708.467 119.972 709.91L119.306 708.763L126.336 716.563L123.569 719.094L114.668 709.218L117.434 706.687C119.555 704.746 121.81 703.514 124.2 702.991C126.582 702.46 128.923 702.597 131.225 703.402C133.51 704.206 135.581 705.638 137.437 707.698C139.507 709.994 140.788 712.502 141.282 715.223C141.769 717.935 141.461 720.682 140.357 723.463C139.246 726.236 137.332 728.865 134.616 731.351C132.579 733.215 130.5 734.617 128.379 735.557C126.242 736.495 124.143 736.984 122.081 737.022C120.02 737.06 118.059 736.667 116.2 735.843C114.34 735.018 112.661 733.775 111.162 732.112C109.929 730.744 108.986 729.282 108.332 727.724C107.661 726.166 107.281 724.581 107.19 722.97C107.083 721.357 107.264 719.767 107.732 718.199C108.192 716.639 108.94 715.169 109.976 713.789L112.897 717.031Z" stroke="black" stroke-width="2" mask="url(#path-1-outside-1_1782_123)"/>
<path d="M111.072 677.083L113.594 680.727L77.7381 690.261L75.2544 686.674L96.5184 656.06L99.041 659.704L80.9369 685.18L81.0922 685.404L111.072 677.083ZM98.984 683.579L88.8161 668.891L91.8841 666.735L102.052 681.422L98.984 683.579Z" stroke="black" stroke-width="2" mask="url(#path-1-outside-1_1782_123)"/>
<path d="M84.9892 635.874L54.0893 652.117L48.6659 641.643C47.412 639.221 46.7951 637.016 46.8153 635.028C46.8254 633.046 47.3513 631.306 48.393 629.808C49.4346 628.311 50.8658 627.083 52.6864 626.126C54.507 625.169 56.3147 624.694 58.1095 624.701C59.9044 624.707 61.6038 625.271 63.2079 626.392C64.8019 627.518 66.2207 629.282 67.4642 631.684L71.853 640.16L68.4734 641.937L64.1472 633.581C63.2903 631.926 62.3593 630.721 61.354 629.966C60.3434 629.201 59.2781 628.823 58.1578 628.835C57.0222 628.841 55.8359 629.169 54.5987 629.82C53.3614 630.47 52.4003 631.271 51.7153 632.221C51.0302 633.172 50.7001 634.289 50.7249 635.573C50.7396 636.862 51.1806 638.344 52.0479 640.019L55.465 646.618L83.0455 632.12L84.9892 635.874ZM63.5533 628.579L73.4841 613.653L75.7412 618.012L65.7477 632.817L63.5533 628.579Z" stroke="black" stroke-width="2" mask="url(#path-1-outside-1_1782_123)"/>
<path d="M36.7674 568.115C40.2195 566.835 43.4309 566.353 46.4016 566.67C49.3722 566.986 51.937 567.98 54.0961 569.652C56.2552 571.324 57.8454 573.558 58.8668 576.354C59.8882 579.151 60.1147 581.891 59.5461 584.574C58.9776 587.257 57.6642 589.69 55.6058 591.871C53.5474 594.052 50.7921 595.783 47.34 597.063C43.8879 598.343 40.6765 598.825 37.7059 598.508C34.7352 598.192 32.1704 597.198 30.0113 595.526C27.8522 593.854 26.262 591.62 25.2406 588.823C24.2192 586.027 23.9928 583.287 24.5613 580.604C25.1298 577.921 26.4433 575.488 28.5016 573.307C30.56 571.126 33.3153 569.395 36.7674 568.115ZM38.1709 571.958C35.3367 573.009 33.1182 574.371 31.5154 576.044C29.9086 577.706 28.8988 579.529 28.4859 581.512C28.0691 583.484 28.2233 585.463 28.9484 587.449C29.6735 589.434 30.8312 591.047 32.4214 592.287C34.0077 593.517 35.9493 594.245 38.246 594.472C40.5389 594.689 43.1024 594.271 45.9366 593.22C48.7707 592.169 50.9912 590.813 52.5979 589.15C54.2008 587.477 55.2106 585.655 55.6273 583.682C56.0402 581.699 55.8841 579.715 55.159 577.729C54.4339 575.744 53.2782 574.136 51.6919 572.907C50.1017 571.666 48.1601 570.938 45.8672 570.722C43.5705 570.495 41.005 570.907 38.1709 571.958Z" stroke="black" stroke-width="2" mask="url(#path-1-outside-1_1782_123)"/>
<path d="M7.10077 521.181L41.1217 513.356L42.0255 517.346L19.5163 542.042L19.5916 542.375L46.3034 536.231L47.2373 540.354L13.2163 548.178L12.3125 544.189L34.8731 519.411L34.7978 519.078L8.0196 525.237L7.10077 521.181Z" stroke="black" stroke-width="2" mask="url(#path-1-outside-1_1782_123)"/>
<path d="M11.4641 467.893C10.3575 468.378 9.38104 468.969 8.5347 469.668C7.67596 470.357 6.96432 471.151 6.39977 472.051C5.83414 472.939 5.43203 473.926 5.19344 475.011C4.95485 476.096 4.89566 477.266 5.01587 478.522C5.21298 480.58 5.9238 482.401 7.14834 483.983C8.37288 485.565 10.0677 486.753 12.2328 487.548C14.3979 488.342 16.9847 488.593 19.9932 488.3C23.0018 488.008 25.4928 487.258 27.4662 486.05C29.4396 484.842 30.8756 483.326 31.7741 481.504C32.6727 479.681 33.0191 477.695 32.8133 475.546C32.6227 473.555 32.0307 471.843 31.0373 470.409C30.0315 468.966 28.7076 467.896 27.0655 467.199C25.4111 466.492 23.5207 466.242 21.3943 466.449L21.5423 465.133L22.543 475.585L18.8106 475.948L17.5435 462.713L21.2759 462.35C24.1374 462.072 26.6842 462.441 28.9162 463.457C31.1471 464.462 32.9474 465.976 34.317 468.001C35.6743 470.016 36.485 472.403 36.7493 475.163C37.0439 478.24 36.5788 481.014 35.3542 483.485C34.1285 485.944 32.2433 487.954 29.6986 489.515C27.1528 491.064 24.0477 492.016 20.3831 492.373C17.6347 492.64 15.1282 492.512 12.8636 491.99C10.5866 491.458 8.60839 490.589 6.92892 489.382C5.24944 488.175 3.90807 486.684 2.9048 484.909C1.90154 483.134 1.29323 481.133 1.07988 478.904C0.904432 477.072 1.018 475.337 1.42059 473.699C1.81078 472.051 2.44962 470.556 3.33711 469.214C4.21221 467.862 5.30527 466.7 6.6163 465.727C7.91602 464.756 9.39334 464.03 11.0483 463.55L11.4641 467.893Z" stroke="black" stroke-width="2" mask="url(#path-1-outside-1_1782_123)"/>
<path d="M33.8496 371.677C33.6318 373.035 33.102 374.221 32.2602 375.235C31.4073 376.248 30.366 376.999 29.1364 377.49C27.9086 377.969 26.6161 378.098 25.259 377.877C23.8907 377.654 22.7045 377.121 21.7003 376.278C20.6867 375.422 19.9391 374.379 19.4574 373.15C18.9645 371.918 18.8269 370.623 19.0448 369.266C19.2644 367.897 19.7998 366.712 20.651 365.711C21.4927 364.696 22.5275 363.95 23.7553 363.47C24.9737 362.978 26.2671 362.843 27.6354 363.066C28.9925 363.287 30.1778 363.826 31.1914 364.682C32.2068 365.527 32.9609 366.565 33.4538 367.796C33.9373 369.015 34.0693 370.309 33.8496 371.677Z" stroke="black" stroke-width="2" mask="url(#path-1-outside-1_1782_123)"/>
<path d="M48.1014 258.03C46.4416 257.513 44.8834 257.727 43.4266 258.669C41.9698 259.612 40.8163 261.051 39.9661 262.986C39.3445 264.401 39.0289 265.741 39.0194 267.006C39.0144 268.261 39.2811 269.363 39.8197 270.312C40.3629 271.251 41.143 271.947 42.16 272.401C43.011 272.781 43.8318 272.904 44.6224 272.771C45.4071 272.624 46.1436 272.318 46.8317 271.853C47.5094 271.384 48.1335 270.854 48.7037 270.262C49.2636 269.666 49.7516 269.106 50.1678 268.582L52.4656 265.725C53.0492 264.99 53.757 264.198 54.5889 263.35C55.4254 262.491 56.3814 261.742 57.457 261.101C58.5267 260.446 59.7101 260.041 61.0072 259.885C62.3043 259.73 63.7001 259.985 65.1946 260.652C66.9173 261.42 68.2752 262.567 69.2682 264.093C70.2658 265.608 70.7951 267.412 70.8563 269.504C70.922 271.587 70.4155 273.856 69.3368 276.311C68.3313 278.6 67.0921 280.417 65.6194 281.764C64.1512 283.1 62.5479 283.952 60.8094 284.322C59.0754 284.68 57.3093 284.533 55.5109 283.881L57.2661 279.886C58.5156 280.318 59.6902 280.357 60.7897 280.001C61.8835 279.631 62.8623 278.985 63.7262 278.064C64.5843 277.128 65.2922 276.025 65.8498 274.756C66.4988 273.278 66.8429 271.845 66.882 270.457C66.9107 269.063 66.6452 267.831 66.0855 266.761C65.5154 265.685 64.6492 264.888 63.4868 264.37C62.4283 263.897 61.4366 263.81 60.5119 264.107C59.5872 264.403 58.7047 264.943 57.8645 265.725C57.0243 266.508 56.2017 267.391 55.3968 268.376L52.5482 271.809C50.7352 273.986 48.8445 275.507 46.8762 276.371C44.9079 277.235 42.8496 277.188 40.7014 276.23C38.9164 275.434 37.5722 274.255 36.6689 272.695C35.7597 271.12 35.2978 269.346 35.2832 267.374C35.2627 265.386 35.7004 263.373 36.5962 261.334C37.5012 259.274 38.6741 257.607 40.1148 256.334C41.5452 255.056 43.0991 254.231 44.7766 253.859C46.4586 253.477 48.1154 253.619 49.7468 254.284L48.1014 258.03Z" stroke="black" stroke-width="2" mask="url(#path-1-outside-1_1782_123)"/>
<path d="M86.6466 205.865C89.7886 207.785 92.1612 210.013 93.7645 212.55C95.3677 215.087 96.1924 217.728 96.2387 220.473C96.2849 223.217 95.5406 225.865 94.0058 228.416C92.4709 230.968 90.4853 232.857 88.049 234.085C85.6126 235.314 82.9074 235.798 79.9333 235.54C76.9593 235.281 73.9013 234.192 70.7592 232.273C67.6172 230.354 65.2446 228.125 63.6413 225.588C62.0381 223.051 61.2134 220.41 61.1671 217.665C61.1209 214.921 61.8652 212.273 63.4 209.722C64.9349 207.171 66.9205 205.281 69.3568 204.053C71.7932 202.825 74.4984 202.34 77.4725 202.598C80.4465 202.857 83.5045 203.946 86.6466 205.865ZM84.5376 209.371C81.9581 207.795 79.5203 206.899 77.2242 206.681C74.934 206.454 72.8909 206.797 71.0947 207.711C69.3044 208.615 67.8644 209.972 66.7748 211.783C65.6852 213.594 65.1539 215.513 65.1809 217.54C65.2137 219.558 65.8568 221.542 67.1101 223.493C68.3692 225.433 70.2886 227.192 72.8682 228.767C75.4477 230.343 77.8826 231.244 80.1728 231.472C82.4688 231.689 84.512 231.346 86.3023 230.442C88.0985 229.528 89.5414 228.166 90.631 226.355C91.7206 224.544 92.249 222.63 92.2161 220.612C92.1891 218.585 91.5461 216.601 90.2869 214.66C89.0336 212.71 87.1172 210.946 84.5376 209.371Z" stroke="black" stroke-width="2" mask="url(#path-1-outside-1_1782_123)"/>
<path d="M116.334 195.983L89.1219 174.117L102.112 157.704L105.035 160.053L94.6685 173.151L103.863 180.54L113.257 168.671L116.18 171.02L106.786 182.889L118.958 192.669L116.334 195.983Z" stroke="black" stroke-width="2" mask="url(#path-1-outside-1_1782_123)"/>
<path d="M125.828 136.613L123.229 133.909L141.968 115.624L144.566 118.328L136.71 125.994L158.302 148.459L155.276 151.412L133.684 128.946L125.828 136.613Z" stroke="black" stroke-width="2" mask="url(#path-1-outside-1_1782_123)"/>
<path d="M187.777 122.323L159.37 100.007L162.803 97.4258L185.556 115.888L185.829 115.683L174.846 88.3694L178.661 85.5009L201.523 103.881L201.795 103.677L190.704 76.4446L194.137 73.8629L207.285 107.652L203.798 110.275L181.083 92.5513L180.865 92.7153L191.264 119.7L187.777 122.323Z" stroke="black" stroke-width="2" mask="url(#path-1-outside-1_1782_123)"/>
<path d="M231.402 92.1493L227.548 94.3366L221.664 57.5379L225.459 55.3843L253.639 79.5302L249.785 81.7175L226.375 61.2146L226.137 61.3492L231.402 92.1493ZM226.172 79.4384L241.709 70.6219L243.538 73.8953L228.002 82.7118L226.172 79.4384Z" stroke="black" stroke-width="2" mask="url(#path-1-outside-1_1782_123)"/>
<path d="M274.444 69.7466L261.429 37.3544L272.351 32.8991C274.876 31.8689 277.122 31.4557 279.09 31.6593C281.054 31.8524 282.725 32.5387 284.106 33.7184C285.486 34.8981 286.559 36.4422 287.326 38.3507C288.093 40.2592 288.384 42.1104 288.198 43.9042C288.013 45.6981 287.285 47.3451 286.014 48.8454C284.739 50.3351 282.849 51.5907 280.345 52.6123L271.506 56.2178L270.083 52.6749L278.795 49.1209C280.521 48.417 281.808 47.5973 282.657 46.662C283.516 45.7223 283.996 44.692 284.097 43.5709C284.203 42.435 283.996 41.2186 283.475 39.9217C282.954 38.6247 282.257 37.5899 281.383 36.8173C280.509 36.0447 279.435 35.6115 278.16 35.5178C276.882 35.4135 275.369 35.7177 273.622 36.4302L266.741 39.2373L278.358 68.1499L274.444 69.7466ZM283.812 48.9888L297.613 60.2951L293.068 62.1493L279.393 50.7916L283.812 48.9888Z" stroke="black" stroke-width="2" mask="url(#path-1-outside-1_1782_123)"/>
<path d="M323.614 51.7598L314.822 17.976L335.191 12.5939L336.136 16.223L319.854 20.5252L322.824 31.9404L338.052 27.9169L338.996 31.5461L323.769 35.5696L326.757 47.0508L343.303 42.6789L344.247 46.308L323.614 51.7598Z" stroke="black" stroke-width="2" mask="url(#path-1-outside-1_1782_123)"/>
<path d="M424.82 35.9091V1H445.888V4.75H429.047V16.5455H444.797V20.2955H429.047V32.1591H446.161V35.9091H424.82Z" stroke="black" stroke-width="2" mask="url(#path-1-outside-1_1782_123)"/>
<path d="M506.557 6.69043L502.126 41.3172L498.069 40.7901L482.684 11.1519L482.346 11.108L478.867 38.2954L474.675 37.7508L479.106 3.12405L483.163 3.6511L498.607 33.3657L498.945 33.4096L502.432 6.1546L506.557 6.69043Z" stroke="black" stroke-width="2" mask="url(#path-1-outside-1_1782_123)"/>
<path d="M554.65 29.1535C554.576 27.9469 554.357 26.8254 553.993 25.7889C553.643 24.7442 553.142 23.8011 552.492 22.9594C551.854 22.1206 551.066 21.4013 550.13 20.8014C549.194 20.2015 548.117 19.7405 546.897 19.4182C544.898 18.8899 542.945 18.9263 541.039 19.5275C539.133 20.1287 537.435 21.3079 535.944 23.0649C534.453 24.822 533.327 27.1631 532.566 30.0884C531.805 33.0137 531.651 35.6118 532.105 37.8826C532.559 40.1535 533.487 42.0265 534.888 43.5015C536.289 44.9765 538.033 45.9897 540.12 46.5413C542.054 47.0522 543.864 47.0898 545.551 46.654C547.252 46.2101 548.712 45.3382 549.931 44.0383C551.163 42.7303 552.049 41.0425 552.587 38.975L553.771 39.5699L543.619 36.8876L544.563 33.2584L557.418 36.6549L556.473 40.284C555.749 43.0663 554.526 45.329 552.805 47.072C551.094 48.8179 549.053 49.9828 546.682 50.5669C544.324 51.1429 541.805 51.0767 539.124 50.3684C536.136 49.5788 533.693 48.1811 531.796 46.1755C529.911 44.1727 528.674 41.7067 528.086 38.7775C527.509 35.8512 527.684 32.6065 528.611 29.0433C529.306 26.371 530.289 24.0624 531.558 22.1176C532.841 20.1648 534.338 18.6092 536.049 17.4509C537.759 16.2926 539.62 15.5501 541.631 15.2234C543.641 14.8967 545.729 15.0193 547.893 15.5912C549.673 16.0614 551.262 16.7692 552.66 17.7145C554.072 18.6517 555.254 19.7693 556.208 21.0674C557.176 22.3574 557.89 23.7862 558.351 25.3536C558.815 26.9101 558.987 28.5483 558.869 30.2682L554.65 29.1535Z" stroke="black" stroke-width="2" mask="url(#path-1-outside-1_1782_123)"/>
<path d="M600.091 33.9473L587.076 66.3394L583.162 64.7427L596.177 32.3505L600.091 33.9473Z" stroke="black" stroke-width="2" mask="url(#path-1-outside-1_1782_123)"/>
<path d="M662.339 65.5557L645.307 96.0279L641.749 94.0089L638.578 60.6948L638.281 60.5265L624.908 84.452L621.232 82.3656L638.264 51.8934L641.822 53.9124L645.019 87.3197L645.316 87.4879L658.722 63.503L662.339 65.5557Z" stroke="black" stroke-width="2" mask="url(#path-1-outside-1_1782_123)"/>
<path d="M666.082 110.28L686.86 82.2279L703.698 94.8904L701.466 97.9038L688.006 87.782L680.986 97.2606L693.574 106.727L691.342 109.74L678.754 100.274L671.693 109.807L685.37 120.093L683.138 123.107L666.082 110.28Z" stroke="black" stroke-width="2" mask="url(#path-1-outside-1_1782_123)"/>
<path d="M705.852 142.878L730.042 117.71L745.121 132.424L742.522 135.127L730.469 123.366L722.296 131.87L733.568 142.87L730.969 145.573L719.697 134.574L711.476 143.127L723.724 155.079L721.126 157.783L705.852 142.878Z" stroke="black" stroke-width="2" mask="url(#path-1-outside-1_1782_123)"/>
<path d="M740.518 179.53L767.73 157.664L775.05 166.913C776.743 169.052 777.769 171.099 778.128 173.055C778.497 175.004 778.313 176.813 777.577 178.483C776.841 180.153 775.672 181.633 774.068 182.921C772.465 184.209 770.782 185.022 769.02 185.359C767.258 185.696 765.483 185.468 763.696 184.674C761.917 183.873 760.188 182.412 758.51 180.291L752.586 172.807L755.562 170.415L761.402 177.793C762.558 179.254 763.702 180.26 764.832 180.809C765.97 181.367 767.087 181.534 768.184 181.308C769.296 181.085 770.398 180.535 771.487 179.66C772.577 178.784 773.367 177.814 773.857 176.749C774.348 175.685 774.458 174.524 774.189 173.268C773.929 172.005 773.213 170.634 772.042 169.155L767.43 163.328L743.141 182.845L740.518 179.53ZM762.939 182.592L756.047 199.151L753 195.302L759.977 178.85L762.939 182.592Z" stroke="black" stroke-width="2" mask="url(#path-1-outside-1_1782_123)"/>
<path d="M807.863 275.526C807.31 274.268 807.111 272.981 807.266 271.668C807.432 270.35 807.896 269.147 808.66 268.06C809.428 266.983 810.44 266.165 811.696 265.605C812.962 265.04 814.243 264.835 815.541 264.991C816.853 265.152 818.043 265.617 819.113 266.384C820.192 267.147 821.009 268.157 821.562 269.416C822.12 270.685 822.313 271.974 822.143 273.282C821.988 274.595 821.526 275.79 820.758 276.867C820.005 277.95 818.995 278.773 817.729 279.338C816.473 279.898 815.189 280.097 813.877 279.936C812.57 279.785 811.376 279.328 810.297 278.566C809.232 277.809 808.42 276.796 807.863 275.526Z" stroke="black" stroke-width="2" mask="url(#path-1-outside-1_1782_123)"/>
<path d="M856.104 385.793L855.435 381.619C856.595 381.177 857.58 380.573 858.39 379.808C859.201 379.054 859.845 378.189 860.321 377.214C860.811 376.248 861.128 375.211 861.273 374.106C861.417 373 861.398 371.875 861.214 370.73C860.88 368.643 860.049 366.839 858.723 365.316C857.399 363.805 855.63 362.717 853.417 362.053C851.206 361.4 848.609 361.316 845.626 361.802C842.643 362.288 840.204 363.192 838.31 364.514C836.417 365.847 835.079 367.441 834.295 369.295C833.512 371.161 833.289 373.138 833.624 375.225C833.807 376.369 834.141 377.443 834.624 378.447C835.107 379.45 835.727 380.334 836.482 381.097C837.251 381.87 838.138 382.485 839.143 382.943C840.162 383.411 841.286 383.671 842.514 383.724L843.184 387.898C841.373 387.871 839.705 387.555 838.181 386.951C836.657 386.348 835.308 385.508 834.134 384.433C832.972 383.356 832.015 382.09 831.263 380.635C830.514 379.191 830 377.6 829.72 375.861C829.249 372.921 829.547 370.19 830.615 367.667C831.684 365.144 833.436 363.011 835.872 361.267C838.309 359.523 841.344 358.355 844.978 357.763C848.612 357.171 851.857 357.316 854.715 358.197C857.573 359.079 859.903 360.547 861.706 362.602C863.509 364.657 864.646 367.155 865.117 370.094C865.397 371.833 865.406 373.507 865.146 375.115C864.888 376.735 864.37 378.241 863.593 379.634C862.826 381.025 861.814 382.249 860.556 383.306C859.31 384.361 857.826 385.19 856.104 385.793Z" stroke="black" stroke-width="2" mask="url(#path-1-outside-1_1782_123)"/>
<path d="M869.381 410.568L869.535 415.407L853.557 425.61L853.57 426.019L870.164 435.169L870.318 440.008L849.405 428.064L835.026 428.528L834.892 424.303L849.271 423.838L869.381 410.568Z" stroke="black" stroke-width="2" mask="url(#path-1-outside-1_1782_123)"/>
<path d="M834.41 466.743L869.155 470.12L867.992 482.269C867.76 484.69 867.151 486.646 866.163 488.137C865.187 489.629 863.961 490.691 862.485 491.324C861.02 491.958 859.439 492.193 857.743 492.028C856.25 491.883 855.042 491.497 854.121 490.871C853.198 490.256 852.495 489.491 852.011 488.577C851.527 487.673 851.197 486.711 851.021 485.689L850.682 485.656C850.512 486.713 850.036 487.745 849.255 488.754C848.473 489.763 847.414 490.567 846.078 491.168C844.742 491.769 843.158 491.98 841.326 491.802C839.584 491.633 838.056 491.085 836.74 490.158C835.425 489.231 834.442 487.873 833.791 486.086C833.14 484.299 832.946 482.037 833.208 479.299L834.41 466.743ZM837.74 471.314L836.94 479.662C836.677 482.411 837.022 484.414 837.975 485.671C838.937 486.94 840.182 487.649 841.709 487.798C842.886 487.912 844 487.718 845.053 487.215C846.117 486.713 847.002 485.937 847.707 484.887C848.424 483.838 848.855 482.555 849 481.04L849.819 472.488L837.74 471.314ZM853.483 472.844L852.736 480.649C852.615 481.916 852.754 483.083 853.155 484.149C853.554 485.227 854.177 486.11 855.024 486.797C855.871 487.496 856.905 487.905 858.126 488.024C859.653 488.172 860.999 487.766 862.164 486.806C863.34 485.847 864.039 484.214 864.26 481.906L865.02 473.965L853.483 472.844Z" stroke="black" stroke-width="2" mask="url(#path-1-outside-1_1782_123)"/>
<path d="M827.421 519.231L861.442 527.055L856.787 547.602L853.133 546.762L856.853 530.337L845.358 527.693L841.878 543.054L838.224 542.214L841.703 526.853L830.141 524.194L826.361 540.885L822.706 540.044L827.421 519.231Z" stroke="black" stroke-width="2" mask="url(#path-1-outside-1_1782_123)"/>
<path d="M814.485 568.226L847.216 580.363L843.169 591.443C842.234 594.005 841.029 595.946 839.555 597.265C838.091 598.589 836.459 599.366 834.657 599.594C832.856 599.823 830.991 599.58 829.062 598.865C827.134 598.15 825.568 597.121 824.365 595.778C823.162 594.435 822.432 592.789 822.176 590.84C821.931 588.894 822.272 586.651 823.2 584.111L826.475 575.145L830.055 576.472L826.827 585.31C826.188 587.061 825.929 588.565 826.05 589.822C826.168 591.09 826.608 592.137 827.37 592.965C828.139 593.808 829.179 594.472 830.489 594.958C831.8 595.444 833.035 595.623 834.194 595.496C835.354 595.368 836.397 594.864 837.324 593.984C838.261 593.107 839.053 591.783 839.7 590.011L842.25 583.03L813.034 572.197L814.485 568.226ZM823.551 589.113L805.9 591.73L807.584 587.119L825.188 584.63L823.551 589.113Z" stroke="black" stroke-width="2" mask="url(#path-1-outside-1_1782_123)"/>
<path d="M809.489 645.293C811.112 645.915 812.681 645.802 814.194 644.954C815.708 644.107 816.951 642.745 817.923 640.868C818.633 639.495 819.034 638.178 819.124 636.916C819.209 635.664 819.013 634.547 818.537 633.565C818.055 632.593 817.321 631.847 816.335 631.329C815.51 630.896 814.699 630.72 813.902 630.801C813.11 630.898 812.355 631.156 811.639 631.576C810.933 632.001 810.277 632.49 809.67 633.044C809.073 633.603 808.55 634.131 808.102 634.627L805.627 637.331C804.997 638.027 804.241 638.772 803.357 639.565C802.467 640.369 801.465 641.055 800.352 641.625C799.242 642.21 798.036 642.539 796.732 642.611C795.428 642.683 794.051 642.338 792.603 641.577C790.933 640.699 789.652 639.467 788.758 637.88C787.86 636.304 787.447 634.469 787.52 632.377C787.587 630.294 788.237 628.062 789.47 625.68C790.62 623.46 791.972 621.725 793.528 620.476C795.078 619.237 796.732 618.489 798.49 618.232C800.243 617.985 801.996 618.245 803.748 619.013L801.742 622.888C800.523 622.375 799.353 622.261 798.234 622.546C797.119 622.845 796.101 623.427 795.18 624.291C794.264 625.17 793.488 626.226 792.85 627.457C792.108 628.89 791.673 630.298 791.546 631.681C791.428 633.07 791.614 634.317 792.104 635.422C792.604 636.532 793.418 637.383 794.544 637.976C795.57 638.515 796.554 638.666 797.496 638.429C798.437 638.193 799.352 637.711 800.24 636.984C801.128 636.257 802.006 635.428 802.872 634.496L805.933 631.253C807.881 629.196 809.864 627.799 811.883 627.063C813.902 626.327 815.953 626.507 818.035 627.601C819.765 628.511 821.031 629.773 821.833 631.388C822.639 633.019 822.986 634.819 822.875 636.789C822.769 638.774 822.203 640.756 821.179 642.734C820.145 644.732 818.868 646.32 817.349 647.499C815.841 648.683 814.238 649.406 812.54 649.669C810.838 649.943 809.194 649.695 807.608 648.926L809.489 645.293Z" stroke="black" stroke-width="2" mask="url(#path-1-outside-1_1782_123)"/>
<path d="M769.263 661.972L797.823 682.046L785.831 699.368L782.763 697.212L792.349 683.365L782.699 676.583L773.734 689.532L770.666 687.376L779.631 674.426L769.925 667.604L760.184 681.675L757.116 679.519L769.263 661.972Z" stroke="black" stroke-width="2" mask="url(#path-1-outside-1_1782_123)"/>
<path d="M738.626 737.391L741.456 734.251C742.521 734.886 743.602 735.282 744.699 735.439C745.789 735.605 746.861 735.569 747.916 735.333C748.971 735.112 749.974 734.713 750.924 734.134C751.873 733.556 752.736 732.836 753.512 731.975C754.927 730.405 755.815 728.622 756.176 726.626C756.529 724.639 756.277 722.568 755.42 720.412C754.556 718.266 753.008 716.172 750.778 714.132C748.548 712.091 746.332 710.74 744.128 710.079C741.917 709.426 739.846 709.373 737.917 709.918C735.98 710.471 734.304 711.533 732.889 713.103C732.113 713.964 731.485 714.898 731.005 715.907C730.524 716.915 730.222 717.955 730.097 719.027C729.973 720.115 730.045 721.198 730.313 722.275C730.582 723.368 731.078 724.414 731.799 725.413L728.969 728.553C727.865 727.112 727.076 725.604 726.599 724.028C726.122 722.452 725.938 720.866 726.045 719.27C726.161 717.682 726.552 716.137 727.217 714.635C727.874 713.142 728.793 711.742 729.972 710.433C731.965 708.222 734.274 706.746 736.9 706.006C739.525 705.266 742.271 705.307 745.14 706.13C748.009 706.953 750.801 708.607 753.517 711.093C756.233 713.578 758.136 716.22 759.224 719.018C760.312 721.816 760.617 724.567 760.138 727.271C759.659 729.975 758.423 732.433 756.43 734.644C755.251 735.953 753.955 737.008 752.543 737.811C751.123 738.622 749.631 739.158 748.064 739.42C746.506 739.688 744.926 739.659 743.324 739.333C741.73 739.014 740.164 738.366 738.626 737.391Z" stroke="black" stroke-width="2" mask="url(#path-1-outside-1_1782_123)"/>
<path d="M707.861 780.419L704.652 783.172L689.735 765.516C688.195 763.693 687.247 761.699 686.891 759.534C686.533 757.386 686.778 755.237 687.625 753.088C688.48 750.948 689.946 748.986 692.025 747.203C694.104 745.42 696.26 744.274 698.493 743.766C700.733 743.266 702.882 743.362 704.939 744.053C706.994 744.76 708.792 746.025 710.332 747.848L725.249 765.504L722.04 768.256L707.343 750.861C706.243 749.559 704.98 748.644 703.552 748.117C702.132 747.598 700.651 747.499 699.107 747.82C697.562 748.157 696.052 748.959 694.577 750.224C693.102 751.489 692.076 752.863 691.5 754.346C690.93 755.837 690.79 757.327 691.08 758.815C691.369 760.319 692.064 761.722 693.164 763.024L707.861 780.419Z" stroke="black" stroke-width="2" mask="url(#path-1-outside-1_1782_123)"/>
<path d="M662.479 771.076L681.421 800.399L671.558 806.868C669.278 808.364 667.153 809.2 665.184 809.377C663.221 809.564 661.45 809.21 659.872 808.316C658.293 807.422 656.945 806.111 655.829 804.383C654.713 802.655 654.075 800.893 653.915 799.095C653.755 797.298 654.155 795.54 655.116 793.823C656.082 792.116 657.696 790.52 659.958 789.037L667.94 783.802L670.012 787.009L662.144 792.169C660.585 793.191 659.479 794.243 658.825 795.325C658.161 796.412 657.887 797.516 658.002 798.637C658.114 799.773 658.549 800.928 659.307 802.102C660.065 803.276 660.947 804.159 661.951 804.75C662.956 805.342 664.092 805.561 665.36 805.409C666.634 805.267 668.06 804.678 669.637 803.643L675.852 799.567L658.944 773.395L662.479 771.076ZM657.248 793.26L641.555 784.8L645.66 782.107L661.239 790.643L657.248 793.26Z" stroke="black" stroke-width="2" mask="url(#path-1-outside-1_1782_123)"/>
<path d="M621.727 835.053L606.674 803.556L610.477 801.711L625.53 833.207L621.727 835.053Z" stroke="black" stroke-width="2" mask="url(#path-1-outside-1_1782_123)"/>
<path d="M583.223 847.571L584.397 851.133L559.568 859.439L558.394 855.878L568.804 852.395L559.053 822.801L563.062 821.46L572.813 851.054L583.223 847.571Z" stroke="black" stroke-width="2" mask="url(#path-1-outside-1_1782_123)"/>
<path d="M532.55 866.745L527.799 867.677L515.206 853.542L514.805 853.621L508.397 871.485L503.646 872.417L512.129 849.838L509.399 835.713L513.547 834.899L516.278 849.024L532.55 866.745Z" stroke="black" stroke-width="2" mask="url(#path-1-outside-1_1782_123)"/>
</svg>
