<svg width="857" height="857" viewBox="0 0 857 857" fill="none" xmlns="http://www.w3.org/2000/svg">
<path d="M421.105 856.853H413.809V832.513C413.809 830.263 414.315 828.313 415.327 826.653C416.327 824.994 417.719 823.716 419.503 822.818C421.287 821.92 423.361 821.471 425.724 821.471C427.827 821.471 429.736 821.841 431.452 822.579C433.156 823.329 434.508 824.466 435.508 825.988C436.508 827.522 437.003 829.453 436.991 831.763H429.645C429.622 830.843 429.434 830.053 429.082 829.393C428.719 828.753 428.224 828.253 427.599 827.897C426.963 827.557 426.213 827.386 425.349 827.386C424.44 827.386 423.673 827.579 423.048 827.963C422.412 828.363 421.929 828.943 421.599 829.703C421.27 830.463 421.105 831.403 421.105 832.513V856.853Z" fill="black"/>
<path d="M384.446 819.797L392.293 820.787L375.957 853.913L366.521 852.723L358.961 816.58L366.808 817.571L372.104 845.383L372.375 845.423L384.446 819.797ZM383.215 833.473L364.68 831.133L365.403 825.417L383.938 827.756L383.215 833.473Z" fill="black"/>
<path d="M304.234 839.243L312.923 805.432L319.098 807.016L328.34 832.073L328.588 832.133L334.057 810.853L341.206 812.687L332.517 846.493L326.243 844.883L317.112 819.88L316.815 819.804L311.35 841.063L304.234 839.243Z" fill="black"/>
<path d="M217.091 788.929C216.9 789.771 216.841 790.574 216.912 791.34C216.978 792.115 217.179 792.847 217.513 793.536C217.832 794.23 218.282 794.873 218.864 795.465C219.436 796.051 220.141 796.574 220.977 797.034C222.541 797.893 224.129 798.259 225.742 798.134C227.345 798.003 228.883 797.376 230.356 796.254C231.825 795.141 233.145 793.52 234.317 791.389C235.49 789.259 236.163 787.269 236.338 785.42C236.512 783.571 236.223 781.928 235.47 780.49C234.712 779.063 233.527 777.906 231.913 777.02C230.449 776.216 229.056 775.788 227.736 775.737C226.4 775.69 225.195 775.994 224.121 776.649C223.037 777.298 222.136 778.275 221.419 779.579L220.211 778.663L228.099 782.996L225.42 787.864L212.616 780.832L214.737 776.979C216.216 774.291 218.055 772.293 220.253 770.985C222.446 769.687 224.826 769.063 227.393 769.112C229.955 769.17 232.521 769.905 235.09 771.317C237.959 772.892 240.131 774.908 241.607 777.365C243.077 779.832 243.776 782.569 243.703 785.576C243.616 788.588 242.684 791.706 240.909 794.932C239.545 797.411 237.97 799.424 236.185 800.972C234.384 802.524 232.458 803.618 230.408 804.256C228.359 804.893 226.273 805.089 224.151 804.844C222.029 804.599 219.957 803.921 217.935 802.811C216.202 801.859 214.728 800.719 213.513 799.391C212.293 798.072 211.357 796.638 210.706 795.087C210.044 793.531 209.693 791.919 209.652 790.25C209.605 788.59 209.894 786.947 210.517 785.319L217.091 788.929Z" fill="black"/>
<path d="M201.013 750.471L207.414 755.117L177.129 776.27L169.431 770.683L180.224 735.382L186.625 740.028L177.862 766.945L178.082 767.105L201.013 750.471ZM193.343 761.859L178.224 750.885L181.612 746.225L196.731 757.199L193.343 761.859Z" fill="black"/>
<path d="M167.329 724.179L143.419 749.615L133.375 740.192C131.452 738.388 130.134 736.505 129.421 734.543C128.692 732.581 128.559 730.64 129.021 728.722C129.468 726.803 130.481 725.003 132.061 723.323C133.648 721.634 135.379 720.522 137.252 719.99C139.118 719.465 141.046 719.529 143.037 720.181C145.02 720.826 146.989 722.066 148.945 723.901L155.671 730.21L151.608 734.532L145.753 729.039C144.725 728.075 143.739 727.415 142.795 727.059C141.851 726.703 140.948 726.651 140.088 726.903C139.219 727.148 138.391 727.688 137.605 728.524C136.811 729.369 136.312 730.24 136.107 731.138C135.893 732.029 135.991 732.946 136.398 733.889C136.79 734.833 137.504 735.791 138.54 736.763L142.169 740.169L161.946 719.129L167.329 724.179ZM142.699 722.856L147.252 705.344L153.194 710.919L148.505 728.302L142.699 722.856Z" fill="black"/>
<path d="M98.3568 675.667C101.291 673.242 104.248 671.735 107.227 671.145C110.199 670.547 113.017 670.753 115.684 671.763C118.334 672.772 120.641 674.462 122.605 676.834C124.584 679.224 125.816 681.817 126.303 684.614C126.789 687.411 126.46 690.211 125.315 693.015C124.17 695.819 122.134 698.43 119.209 700.848C116.274 703.273 113.321 704.785 110.35 705.383C107.378 705.982 104.567 705.777 101.917 704.768C99.2578 703.766 96.9388 702.071 94.9608 699.681C92.9968 697.309 91.7708 694.725 91.2848 691.928C90.7818 689.13 91.1028 686.328 92.2488 683.524C93.3868 680.712 95.4228 678.093 98.3568 675.667ZM103.13 681.431C101.229 683.002 99.8618 684.611 99.0268 686.259C98.1858 687.897 97.8518 689.508 98.0258 691.089C98.1988 692.67 98.8548 694.148 99.9928 695.522C101.131 696.897 102.461 697.817 103.983 698.283C105.506 698.75 107.155 698.729 108.931 698.219C110.7 697.7 112.535 696.656 114.436 695.085C116.337 693.514 117.708 691.909 118.549 690.27C119.383 688.622 119.713 687.008 119.54 685.426C119.366 683.845 118.711 682.367 117.573 680.993C116.435 679.619 115.105 678.699 113.582 678.232C112.06 677.765 110.414 677.791 108.645 678.31C106.869 678.82 105.03 679.86 103.13 681.431Z" fill="black"/>
<path d="M56.1058 643.278L85.5888 624.586L89.0068 629.967L78.5938 654.552L78.7318 654.768L97.2878 643.003L101.245 649.233L71.7618 667.925L68.2888 662.458L78.7518 637.983L78.5868 637.724L60.0448 649.48L56.1058 643.278Z" fill="black"/>
<path d="M45.1028 596.253C44.4538 596.822 43.9328 597.437 43.5408 598.098C43.1388 598.764 42.8708 599.474 42.7358 600.228C42.5858 600.977 42.5718 601.762 42.6948 602.583C42.8138 603.394 43.0758 604.231 43.4828 605.094C44.2428 606.708 45.3118 607.939 46.6908 608.785C48.0638 609.621 49.6768 610.018 51.5288 609.976C53.3698 609.939 55.3918 609.403 57.5918 608.369C59.7928 607.334 61.5068 606.12 62.7348 604.727C63.9628 603.333 64.6948 601.834 64.9308 600.229C65.1568 598.628 64.8778 596.995 64.0938 595.33C63.3818 593.819 62.5068 592.654 61.4678 591.836C60.4148 591.013 59.2608 590.551 58.0078 590.45C56.7488 590.338 55.4468 590.599 54.0988 591.232L53.6608 589.781L57.4958 597.923L52.4668 600.287L46.2418 587.072L50.2218 585.201C52.9988 583.895 55.6608 583.36 58.2078 583.594C60.7448 583.833 63.0368 584.726 65.0848 586.275C67.1228 587.828 68.7668 589.931 70.0158 592.583C71.4108 595.544 71.9828 598.452 71.7318 601.307C71.4718 604.167 70.4278 606.792 68.6018 609.182C66.7608 611.567 64.1748 613.543 60.8428 615.109C58.2818 616.313 55.8248 617.016 53.4708 617.219C51.1018 617.416 48.8998 617.17 46.8678 616.481C44.8348 615.791 43.0318 614.724 41.4588 613.279C39.8858 611.833 38.6088 610.067 37.6258 607.98C36.7828 606.191 36.2608 604.402 36.0588 602.614C35.8468 600.83 35.9328 599.119 36.3168 597.482C36.6968 595.835 37.3608 594.323 38.3078 592.949C39.2458 591.579 40.4448 590.419 41.9068 589.468L45.1028 596.253Z" fill="black"/>
<path d="M34.6808 500.226C34.9388 501.577 34.8448 502.873 34.3998 504.115C33.9428 505.359 33.2208 506.422 32.2318 507.304C31.2418 508.176 30.0708 508.74 28.7208 508.997C27.3588 509.257 26.0618 509.163 24.8318 508.715C23.5868 508.258 22.5298 507.534 21.6578 506.543C20.7748 505.555 20.2038 504.385 19.9468 503.035C19.6868 501.673 19.7858 500.376 20.2448 499.143C20.6898 497.901 21.4078 496.845 22.3988 495.973C23.3758 495.093 24.5448 494.523 25.9068 494.264C27.2578 494.006 28.5548 494.106 29.7998 494.563C31.0418 495.009 32.1038 495.726 32.9868 496.715C33.8568 497.694 34.4208 498.865 34.6808 500.226Z" fill="black"/>
<path d="M10.9098 395.831C9.52882 395.881 8.42583 396.398 7.60083 397.382C6.77583 398.366 6.30782 399.743 6.19682 401.512C6.12082 402.715 6.22682 403.74 6.51482 404.59C6.79182 405.438 7.21083 406.102 7.77283 406.582C8.33583 407.05 8.99082 407.307 9.73982 407.354C10.3618 407.416 10.9148 407.32 11.3978 407.066C11.8808 406.8 12.3088 406.423 12.6818 405.934C13.0428 405.444 13.3688 404.872 13.6608 404.219C13.9408 403.565 14.1898 402.863 14.4078 402.114L15.3538 399.031C15.7898 397.532 16.3308 396.166 16.9778 394.931C17.6248 393.697 18.3918 392.641 19.2788 391.763C20.1648 390.885 21.1858 390.226 22.3408 389.786C23.4958 389.335 24.7998 389.149 26.2528 389.229C28.3838 389.375 30.1978 390.035 31.6958 391.211C33.1818 392.375 34.2928 393.993 35.0278 396.066C35.7518 398.127 36.0248 400.575 35.8458 403.41C35.6688 406.223 35.0838 408.645 34.0908 410.678C33.0978 412.699 31.7198 414.241 29.9558 415.303C28.1818 416.353 26.0398 416.827 23.5298 416.726L23.9788 409.598C25.1518 409.592 26.1488 409.319 26.9688 408.779C27.7778 408.226 28.4118 407.463 28.8718 406.49C29.3208 405.505 29.5858 404.377 29.6658 403.107C29.7438 401.86 29.6308 400.765 29.3258 399.824C29.0208 398.871 28.5618 398.119 27.9478 397.568C27.3338 397.017 26.6068 396.715 25.7668 396.662C24.9848 396.613 24.3118 396.804 23.7498 397.236C23.1888 397.656 22.6928 398.297 22.2628 399.158C21.8338 400.007 21.4258 401.058 21.0398 402.309L19.8478 406.042C18.9488 408.935 17.6848 411.184 16.0588 412.79C14.4318 414.395 12.3308 415.112 9.75783 414.938C7.64683 414.817 5.83982 414.14 4.33482 412.907C2.83082 411.662 1.69882 410.014 0.93982 407.962C0.18082 405.911 -0.118175 403.615 0.0418252 401.074C0.203825 398.489 0.788831 396.259 1.79483 394.387C2.80183 392.503 4.12683 391.072 5.77083 390.094C7.41583 389.116 9.27682 388.675 11.3538 388.771L10.9098 395.831Z" fill="black"/>
<path d="M28.0138 332.404C31.7538 333.117 34.7998 334.432 37.1518 336.349C39.5068 338.255 41.1438 340.557 42.0638 343.254C42.9738 345.938 43.1408 348.792 42.5628 351.817C41.9808 354.865 40.7668 357.467 38.9198 359.626C37.0738 361.784 34.7048 363.316 31.8128 364.223C28.9208 365.129 25.6108 365.227 21.8828 364.517C18.1428 363.804 15.0958 362.495 12.7408 360.588C10.3868 358.682 8.75382 356.387 7.84282 353.703C6.92182 351.017 6.75182 348.151 7.33382 345.103C7.91082 342.079 9.12282 339.487 10.9698 337.329C12.8078 335.157 15.1718 333.618 18.0638 332.711C20.9578 331.794 24.2748 331.691 28.0138 332.404ZM26.6108 339.754C24.1888 339.292 22.0768 339.266 20.2748 339.674C18.4748 340.072 17.0208 340.842 15.9118 341.984C14.8028 343.126 14.0808 344.573 13.7468 346.326C13.4118 348.078 13.5498 349.689 14.1598 351.159C14.7698 352.629 15.8378 353.885 17.3618 354.927C18.8888 355.959 20.8638 356.705 23.2858 357.167C25.7078 357.628 27.8188 357.66 29.6188 357.263C31.4208 356.855 32.8758 356.079 33.9848 354.937C35.0938 353.795 35.8158 352.348 36.1498 350.595C36.4848 348.843 36.3468 347.232 35.7368 345.762C35.1268 344.292 34.0578 343.042 32.5308 342.01C31.0068 340.968 29.0328 340.216 26.6108 339.754Z" fill="black"/>
<path d="M50.4298 317.316L17.2268 306.538L24.3758 284.558L30.1638 286.437L25.2978 301.398L33.2088 303.966L37.6008 290.464L43.3888 292.343L38.9968 305.845L52.7128 310.297L50.4298 317.316Z" fill="black"/>
<path d="M38.9408 261.24L33.4338 258.651L45.6508 232.714L51.1578 235.302L46.6038 244.971L72.6888 257.234L69.5798 263.834L43.4948 251.571L38.9408 261.24Z" fill="black"/>
<path d="M89.1168 226.472L54.2778 216.211L58.6008 209.405L82.1848 217.515L82.3398 217.271L65.2728 198.902L68.9748 193.075L92.9118 200.723L93.0768 200.464L75.6468 182.572L79.9698 175.766L104.097 202.89L100.24 208.961L77.3988 202.351L77.2528 202.582L92.9738 220.4L89.1168 226.472Z" fill="black"/>
<path d="M120.364 181.739L115.32 187.83L96.0978 156.309L102.164 148.984L136.748 161.954L131.703 168.046L105.367 157.623L105.193 157.833L120.364 181.739ZM109.472 173.378L121.387 158.989L125.828 162.659L113.913 177.048L109.472 173.378Z" fill="black"/>
<path d="M148.781 149.834L124.872 124.398L134.917 114.975C136.839 113.171 138.803 111.975 140.808 111.387C142.814 110.783 144.761 110.772 146.649 111.354C148.537 111.919 150.271 113.043 151.851 114.723C153.439 116.413 154.44 118.208 154.855 120.109C155.262 122.002 155.077 123.921 154.3 125.865C153.532 127.802 152.169 129.687 150.213 131.522L143.488 137.832L139.425 133.509L145.281 128.016C146.308 127.052 147.03 126.111 147.444 125.192C147.859 124.273 147.968 123.376 147.77 122.502C147.581 121.62 147.093 120.761 146.307 119.925C145.513 119.08 144.674 118.528 143.789 118.267C142.913 117.998 141.991 118.038 141.023 118.385C140.055 118.716 139.054 119.367 138.018 120.339L134.388 123.745L154.164 144.784L148.781 149.834ZM151.65 125.36L168.858 130.999L162.916 136.574L145.844 130.806L151.65 125.36Z" fill="black"/>
<path d="M186.788 116.468L166.256 88.236L185.293 74.418L188.872 79.339L175.808 88.821L180.701 95.549L192.785 86.778L196.364 91.699L184.28 100.47L189.182 107.211L202.301 97.689L205.88 102.611L186.788 116.468Z" fill="black"/>
<path d="M280.944 62.841L269.436 67.393L256.575 34.94L268.177 30.35C271.442 29.059 274.511 28.597 277.382 28.964C280.249 29.321 282.796 30.458 285.023 32.376C287.261 34.289 289.047 36.931 290.383 40.301C291.722 43.681 292.234 46.84 291.919 49.775C291.614 52.706 290.53 55.292 288.667 57.532C286.815 59.767 284.241 61.537 280.944 62.841ZM273.97 58.799L278.329 57.075C280.357 56.273 281.922 55.239 283.021 53.973C284.127 52.692 284.727 51.153 284.822 49.356C284.923 47.544 284.494 45.429 283.535 43.009C282.585 40.611 281.454 38.792 280.143 37.55C278.843 36.305 277.358 35.597 275.689 35.426C274.02 35.255 272.171 35.571 270.143 36.374L265.768 38.104L273.97 58.799Z" fill="black"/>
<path d="M318.649 49.713L309.959 15.903L332.744 10.058L334.259 15.952L318.623 19.963L320.694 28.019L335.157 24.309L336.672 30.203L322.209 33.913L324.283 41.986L339.985 37.958L341.5 43.852L318.649 49.713Z" fill="black"/>
<path d="M368.616 3.629L380.315 28.885L380.636 28.845L385.697 1.47299L393.814 0.449005L386.254 36.589L376.818 37.78L360.482 4.655L368.616 3.629Z" fill="black"/>
<path d="M416.327 34.909V0H439.849V6.08499H423.707V14.403H438.639V20.489H423.707V28.824H439.918V34.909H416.327Z" fill="black"/>
<path d="M469.863 36.606L474.243 1.97299L481.565 2.897L477.949 31.493L492.797 33.367L492.034 39.404L469.863 36.606Z" fill="black"/>
<path d="M549.097 34.712C548.15 38.399 546.644 41.357 544.582 43.584C542.53 45.815 540.129 47.305 537.379 48.054C534.642 48.795 531.783 48.783 528.8 48.018C525.795 47.247 523.273 45.873 521.235 43.896C519.198 41.918 517.818 39.459 517.095 36.516C516.373 33.574 516.484 30.265 517.429 26.589C518.377 22.902 519.876 19.943 521.928 17.713C523.98 15.482 526.374 13.996 529.11 13.255C531.85 12.503 534.722 12.512 537.727 13.283C540.71 14.048 543.22 15.42 545.258 17.397C547.31 19.366 548.697 21.822 549.419 24.764C550.152 27.709 550.045 31.025 549.097 34.712ZM541.849 32.853C542.463 30.465 542.623 28.359 542.329 26.535C542.046 24.715 541.369 23.216 540.299 22.038C539.229 20.86 537.83 20.049 536.102 19.606C534.374 19.163 532.757 19.2 531.251 19.717C529.745 20.234 528.424 21.221 527.287 22.677C526.161 24.136 525.291 26.06 524.678 28.448C524.064 30.837 523.898 32.941 524.181 34.762C524.475 36.585 525.157 38.086 526.227 39.264C527.297 40.441 528.697 41.252 530.425 41.695C532.153 42.138 533.77 42.102 535.275 41.584C536.781 41.067 538.097 40.079 539.223 38.62C540.36 37.164 541.235 35.241 541.849 32.853Z" fill="black"/>
<path d="M561.496 57.488L574.357 25.035L587.164 30.101C589.627 31.074 591.538 32.374 592.898 34C594.263 35.615 595.071 37.432 595.322 39.45C595.588 41.461 595.294 43.545 594.44 45.7C593.586 47.855 592.368 49.573 590.785 50.853C589.202 52.133 587.346 52.884 585.217 53.105C583.098 53.33 580.792 52.949 578.298 51.963L570.135 48.734L572.315 43.236L579.368 46.025C580.689 46.548 581.867 46.751 582.903 46.636C583.954 46.514 584.852 46.129 585.597 45.483C586.357 44.83 586.948 43.971 587.371 42.904C587.798 41.826 587.954 40.8 587.839 39.826C587.739 38.845 587.343 37.962 586.653 37.175C585.966 36.378 584.957 35.717 583.626 35.19L578.997 33.359L568.359 60.203L561.496 57.488Z" fill="black"/>
<path d="M607.712 77.517L624.542 46.933L645.159 58.256L642.226 63.588L628.077 55.817L624.067 63.105L637.155 70.293L634.221 75.624L621.133 68.436L617.115 75.739L631.323 83.542L628.389 88.873L607.712 77.517Z" fill="black"/>
<path d="M649.46 102.149L669.992 73.917L681.138 82.007C683.272 83.555 684.815 85.259 685.769 87.116C686.738 88.971 687.114 90.879 686.896 92.841C686.693 94.801 685.913 96.713 684.557 98.579C683.193 100.453 681.616 101.773 679.824 102.536C678.039 103.291 676.118 103.469 674.06 103.071C672.013 102.68 669.903 101.696 667.733 100.121L660.27 94.704L663.759 89.907L670.256 94.623C671.397 95.451 672.457 95.982 673.439 96.217C674.42 96.452 675.322 96.39 676.144 96.032C676.976 95.681 677.729 95.041 678.404 94.113C679.086 93.176 679.472 92.248 679.563 91.331C679.663 90.421 679.452 89.523 678.929 88.639C678.422 87.751 677.594 86.89 676.444 86.056L672.416 83.132L655.433 106.485L649.46 102.149ZM674.061 100.375L671.739 118.32L665.145 113.534L667.619 95.699L674.061 100.375Z" fill="black"/>
<path d="M738.681 175.397C737.804 174.338 737.262 173.157 737.054 171.855C736.855 170.545 736.976 169.266 737.417 168.017C737.865 166.776 738.619 165.718 739.679 164.842C740.748 163.959 741.929 163.417 743.224 163.217C744.535 163.018 745.811 163.143 747.053 163.591C748.303 164.032 749.367 164.782 750.244 165.841C751.128 166.909 751.666 168.093 751.858 169.394C752.066 170.696 751.946 171.967 751.497 173.208C751.065 174.45 750.314 175.512 749.246 176.395C748.186 177.271 747.001 177.809 745.69 178.007C744.386 178.215 743.109 178.098 741.859 177.657C740.625 177.218 739.565 176.464 738.681 175.397Z" fill="black"/>
<path d="M812.104 265.175L808.923 258.421C809.739 257.887 810.397 257.27 810.896 256.57C811.406 255.866 811.762 255.102 811.965 254.279C812.167 253.455 812.213 252.592 812.102 251.69C811.996 250.798 811.73 249.9 811.304 248.995C810.534 247.361 809.457 246.128 808.073 245.297C806.7 244.461 805.084 244.071 803.227 244.128C801.38 244.18 799.361 244.721 797.171 245.751C794.919 246.81 793.184 248.033 791.966 249.422C790.753 250.821 790.042 252.311 789.832 253.891C789.622 255.472 789.892 257.058 790.642 258.652C791.064 259.546 791.572 260.318 792.167 260.968C792.766 261.628 793.433 262.149 794.166 262.533C794.91 262.912 795.703 263.142 796.545 263.223C797.392 263.314 798.273 263.239 799.189 262.997L802.34 269.765C800.807 270.272 799.203 270.493 797.526 270.427C795.865 270.367 794.229 270 792.618 269.326C791.021 268.657 789.535 267.661 788.157 266.337C786.795 265.019 785.637 263.347 784.683 261.321C783.357 258.505 782.808 255.686 783.037 252.866C783.271 250.056 784.294 247.441 786.105 245.02C787.922 242.609 790.547 240.596 793.982 238.981C797.427 237.362 800.663 236.632 803.69 236.791C806.717 236.95 809.386 237.843 811.697 239.468C814.018 241.09 815.832 243.288 817.139 246.064C818.001 247.893 818.543 249.711 818.765 251.515C818.992 253.33 818.897 255.075 818.481 256.753C818.076 258.425 817.342 259.975 816.282 261.403C815.226 262.841 813.833 264.099 812.104 265.175Z" fill="black"/>
<path d="M830.268 280.477L832.828 288.339L820.992 300.55L821.097 300.875L837.858 303.803L840.418 311.665L815.012 306.524L803.274 310.334L801.007 303.364L812.745 299.554L830.268 280.477Z" fill="black"/>
<path d="M812.034 342.048L846.328 335.513L848.948 349.242C849.428 351.765 849.458 353.94 849.028 355.768C848.608 357.596 847.808 359.061 846.638 360.162C845.488 361.262 844.048 361.975 842.328 362.303C840.988 362.558 839.758 362.515 838.648 362.172C837.538 361.828 836.568 361.249 835.748 360.435C834.928 359.629 834.278 358.655 833.778 357.512L833.448 357.576C833.638 358.892 833.508 360.185 833.038 361.453C832.578 362.733 831.798 363.846 830.708 364.795C829.628 365.741 828.248 366.375 826.562 366.696C824.743 367.043 823.032 366.9 821.431 366.268C819.842 365.646 818.468 364.537 817.307 362.942C816.147 361.347 815.321 359.266 814.831 356.698L812.034 342.048ZM819.345 348.168L820.474 354.079C820.86 356.099 821.526 357.499 822.473 358.279C823.432 359.056 824.558 359.322 825.853 359.075C826.802 358.894 827.595 358.506 828.238 357.91C828.868 357.314 829.318 356.552 829.568 355.625C829.818 354.709 829.838 353.671 829.618 352.51L828.458 346.432L819.345 348.168ZM833.358 345.498L834.388 350.872C834.578 351.865 834.918 352.714 835.408 353.418C835.918 354.132 836.538 354.65 837.268 354.973C838.008 355.307 838.828 355.388 839.728 355.216C840.968 354.98 841.878 354.348 842.468 353.322C843.068 352.307 843.208 350.995 842.898 349.388L841.848 343.88L833.358 345.498Z" fill="black"/>
<path d="M819.905 391.986L854.748 389.797L856.228 413.273L850.148 413.654L849.138 397.544L840.838 398.066L841.768 412.968L835.698 413.35L834.758 398.448L826.442 398.971L827.461 415.149L821.388 415.531L819.905 391.986Z" fill="black"/>
<path d="M821.438 440.291L856.278 442.481L855.408 456.226C855.248 458.857 854.638 461.073 853.578 462.874C852.528 464.687 851.118 466.027 849.348 466.895C847.578 467.775 845.548 468.142 843.248 467.997C840.928 467.852 838.968 467.228 837.368 466.125C835.778 465.023 834.598 463.497 833.828 461.548C833.068 459.609 832.768 457.302 832.938 454.625L833.518 445.422L839.438 445.794L838.928 453.807C838.838 455.213 838.958 456.393 839.288 457.348C839.618 458.302 840.148 459.03 840.888 459.532C841.638 460.045 842.578 460.338 843.718 460.41C844.878 460.483 845.868 460.312 846.688 459.897C847.518 459.493 848.158 458.833 848.628 457.918C849.108 457.014 849.388 455.853 849.478 454.436L849.788 449.468L820.974 447.657L821.438 440.291ZM836.108 460.102L819.708 467.765L820.22 459.633L836.608 452.158L836.108 460.102Z" fill="black"/>
<path d="M837.698 512.742C839.078 512.865 840.238 512.49 841.178 511.617C842.118 510.744 842.758 509.437 843.088 507.695C843.308 506.512 843.338 505.481 843.158 504.603C842.988 503.726 842.658 503.015 842.158 502.469C841.658 501.934 841.038 501.597 840.308 501.456C839.698 501.317 839.138 501.343 838.628 501.535C838.108 501.738 837.638 502.059 837.208 502.497C836.788 502.938 836.388 503.464 836.018 504.076C835.658 504.689 835.328 505.354 835.018 506.07L833.688 509.011C833.068 510.442 832.358 511.73 831.568 512.874C830.768 514.018 829.878 514.97 828.888 515.73C827.895 516.49 826.8 517.016 825.599 517.307C824.396 517.61 823.079 517.631 821.648 517.37C819.551 516.959 817.834 516.076 816.496 514.722C815.167 513.382 814.268 511.637 813.799 509.488C813.339 507.353 813.376 504.89 813.908 502.1C814.437 499.332 815.322 497.002 816.562 495.109C817.8 493.228 819.361 491.872 821.244 491.039C823.136 490.219 825.32 490.017 827.798 490.431L826.458 497.447C825.294 497.306 824.271 497.452 823.39 497.886C822.518 498.332 821.793 499.01 821.214 499.918C820.645 500.839 820.241 501.924 820.003 503.174C819.768 504.402 819.743 505.502 819.928 506.475C820.11 507.458 820.472 508.261 821.012 508.885C821.552 509.508 822.235 509.899 823.062 510.056C823.832 510.203 824.523 510.098 825.135 509.74C825.745 509.394 826.317 508.82 826.852 508.02C827.384 507.23 827.92 506.239 828.458 505.047L830.108 501.492C831.368 498.735 832.898 496.662 834.718 495.272C836.528 493.883 838.708 493.436 841.238 493.93C843.318 494.314 845.028 495.212 846.368 496.624C847.698 498.047 848.618 499.824 849.108 501.955C849.608 504.085 849.618 506.4 849.138 508.901C848.648 511.446 847.798 513.584 846.558 515.315C845.328 517.058 843.828 518.312 842.078 519.077C840.318 519.841 838.418 520.046 836.368 519.69L837.698 512.742Z" fill="black"/>
<path d="M805.749 538.67L838.948 549.448L831.678 571.818L825.889 569.939L830.878 554.588L822.97 552.02L818.351 566.22L812.564 564.341L817.182 550.141L809.254 547.568L804.24 562.983L798.452 561.104L805.749 538.67Z" fill="black"/>
<path d="M798.648 620.004L801.83 613.25C802.762 613.538 803.657 613.651 804.515 613.59C805.383 613.533 806.199 613.321 806.964 612.951C807.728 612.582 808.422 612.068 809.048 611.407C809.668 610.757 810.191 609.98 810.617 609.075C811.387 607.44 811.651 605.826 811.41 604.231C811.18 602.64 810.45 601.149 809.222 599.755C808.005 598.367 806.301 597.158 804.11 596.128C801.858 595.069 799.809 594.514 797.962 594.461C796.11 594.42 794.507 594.821 793.154 595.667C791.801 596.513 790.75 597.732 789.999 599.326C789.578 600.22 789.306 601.103 789.184 601.975C789.058 602.857 789.08 603.703 789.252 604.512C789.434 605.326 789.762 606.083 790.236 606.783C790.705 607.493 791.325 608.124 792.096 608.674L788.884 615.414C787.516 614.558 786.323 613.463 785.305 612.131C784.293 610.814 783.533 609.32 783.026 607.65C782.524 605.995 782.345 604.216 782.488 602.312C782.637 600.423 783.188 598.466 784.142 596.44C785.469 593.624 787.292 591.405 789.614 589.784C791.93 588.173 794.599 587.293 797.621 587.144C800.638 587.005 803.864 587.743 807.299 589.358C810.744 590.978 813.37 593.003 815.177 595.435C816.983 597.866 817.996 600.489 818.215 603.305C818.444 606.125 817.905 608.923 816.598 611.698C815.736 613.528 814.68 615.104 813.43 616.424C812.175 617.756 810.768 618.796 809.209 619.545C807.661 620.298 805.998 620.722 804.22 620.816C802.438 620.92 800.581 620.649 798.648 620.004Z" fill="black"/>
<path d="M785.048 666.613L781.091 672.843L761.944 660.704C759.794 659.341 758.239 657.635 757.279 655.586C756.313 653.547 755.96 651.326 756.222 648.922C756.493 646.524 757.402 644.107 758.95 641.67C760.504 639.225 762.309 637.368 764.365 636.102C766.431 634.842 768.593 634.215 770.851 634.22C773.11 634.226 775.314 634.91 777.464 636.273L796.61 648.412L792.653 654.642L774.039 642.841C772.916 642.129 771.762 641.741 770.578 641.676C769.388 641.621 768.257 641.886 767.185 642.472C766.113 643.057 765.197 643.949 764.435 645.148C763.667 646.356 763.25 647.565 763.182 648.773C763.108 649.992 763.353 651.122 763.915 652.165C764.472 653.217 765.312 654.1 766.434 654.812L785.048 666.613Z" fill="black"/>
<path d="M739.948 669.636L766.857 691.876L758.073 702.483C756.391 704.514 754.593 705.947 752.677 706.781C750.763 707.632 748.833 707.887 746.887 707.546C744.942 707.222 743.081 706.325 741.303 704.855C739.516 703.378 738.298 701.723 737.648 699.888C737.007 698.061 736.95 696.135 737.477 694.108C737.997 692.091 739.112 690.049 740.822 687.984L746.704 680.881L751.276 684.66L746.156 690.843C745.257 691.929 744.66 692.953 744.363 693.917C744.067 694.881 744.071 695.784 744.377 696.626C744.675 697.478 745.267 698.269 746.152 699C747.045 699.738 747.947 700.181 748.857 700.329C749.76 700.486 750.67 700.331 751.587 699.866C752.506 699.416 753.418 698.644 754.324 697.55L757.498 693.716L735.241 675.321L739.948 669.636ZM740.17 694.277L722.391 690.839L727.587 684.564L745.247 688.146L740.17 694.277Z" fill="black"/>
<path d="M719.14 743.44L695.231 718.004L700.614 712.954L724.523 738.39L719.14 743.44Z" fill="black"/>
<path d="M688.299 761.891L691.878 766.813L668.675 783.654L665.096 778.733L673.745 772.455L656.792 749.143L662.696 744.858L679.649 768.169L688.299 761.891Z" fill="black"/>
<path d="M649.139 796.17L641.893 800.15L627.667 790.81L627.369 790.974L627.64 807.978L620.393 811.958L620.674 786.056L614.724 775.244L621.148 771.715L627.098 782.527L649.139 796.17Z" fill="black"/>
<path d="M524.737 816.746C526.069 816.405 527.368 816.417 528.636 816.784C529.906 817.162 531.013 817.817 531.957 818.748C532.889 819.682 533.526 820.815 533.868 822.147C534.213 823.49 534.201 824.789 533.832 826.045C533.454 827.315 532.799 828.413 531.865 829.343C530.934 830.293 529.802 830.933 528.47 831.273C527.128 831.623 525.826 831.603 524.567 831.223C523.299 830.853 522.199 830.203 521.267 829.273C520.327 828.353 519.684 827.217 519.339 825.874C518.996 824.542 519.014 823.241 519.392 821.971C519.758 820.704 520.407 819.599 521.338 818.656C522.261 817.728 523.394 817.091 524.737 816.746Z" fill="black"/>
</svg>
