<?xml version="1.0" encoding="UTF-8" standalone="no"?>
<!-- Created with Inkscape (http://www.inkscape.org/) -->
<svg xmlns:svg="http://www.w3.org/2000/svg" xmlns="http://www.w3.org/2000/svg" xmlns:xlink="http://www.w3.org/1999/xlink" version="1.0" width="300" height="120" viewBox="0 0 399.54 88.84" id="svg2" xml:space="preserve"><defs id="defs509"><linearGradient id="linearGradient3852"><stop id="stop3854" style="stop-color: rgb(0, 0, 0); stop-opacity: 0.773196;" offset="0"/><stop id="stop3856" style="stop-color: rgb(0, 0, 0); stop-opacity: 0;" offset="1"/></linearGradient><linearGradient id="linearGradient3255"><stop id="stop3257" style="stop-color: rgb(255, 255, 255); stop-opacity: 1;" offset="0"/><stop id="stop3259" style="stop-color: rgb(255, 255, 255); stop-opacity: 0;" offset="1"/></linearGradient><linearGradient id="linearGradient3200"><stop id="stop3202" style="stop-color: rgb(232, 0, 0); stop-opacity: 1;" offset="0"/><stop id="stop3204" style="stop-color: rgb(255, 123, 123); stop-opacity: 1;" offset="1"/></linearGradient><linearGradient x1="40.518616" y1="-16.269829" x2="40.518616" y2="105.10982" id="linearGradient3206" xlink:href="#linearGradient3200" gradientUnits="userSpaceOnUse"/><linearGradient x1="59.192127" y1="-30.445953" x2="53.938019" y2="48.618484" id="linearGradient3261" xlink:href="#linearGradient3255" gradientUnits="userSpaceOnUse"/><linearGradient x1="54.673252" y1="-186.14699" x2="53.938019" y2="48.618484" id="linearGradient3842" xlink:href="#linearGradient3255" gradientUnits="userSpaceOnUse" gradientTransform="matrix(1, 0, 0, -1, -4.07168e-07, 88.9937)"/><radialGradient cx="101.63232" cy="107.01726" r="54.356068" fx="101.63232" fy="107.01726" id="radialGradient3850" xlink:href="#linearGradient3852" gradientUnits="userSpaceOnUse" gradientTransform="matrix(0.991686, -0.00661127, 0.00207797, 0.311626, 0.622575, 72.4297)"/></defs>




































































































































































<path d="M 101.06652,87.303207 C 131.15395,87.303207 155.56451,94.910332 155.56451,104.1981 C 155.56451,113.57432 131.15395,121.18145 101.06652,121.18145 C 71.262933,121.18145 46.852378,113.57432 46.852378,104.1981 C 46.852378,94.910332 71.262933,87.303207 101.06652,87.303207 z M 81.481306,96.767886 L 150.17147,96.767886 L 81.481306,96.767886 z" id="path3844" style="opacity: 0.7; fill: url(#radialGradient3850) rgb(0, 0, 0); fill-opacity: 1; fill-rule: evenodd; stroke: none; stroke-width: 0.28; stroke-linecap: butt; stroke-linejoin: bevel;"/><polygon points="287.78,24.08 303.08,24.08 303.08,27.14 297.5,27.14 297.5,42.8 293.54,42.8 293.54,27.14 287.78,27.14 287.78,24.08" transform="matrix(1.76066, 0, 0, 1.76066, -331.473, -28.2233)" id="polygon4" style="fill: rgb(0, 0, 0); fill-rule: evenodd; stroke: none; stroke-width: 0.28; stroke-linecap: butt; stroke-linejoin: bevel;"/><path d="M 216.09127,19.560896 L 224.96498,19.560896 C 228.13416,19.560896 230.03567,20.828568 230.03567,23.680832 C 230.03567,26.533095 228.13416,28.117686 224.96498,28.117686 L 216.09127,28.117686 L 216.09127,19.560896 z M 216.09127,34.139131 L 223.69731,34.139131 C 223.69731,34.139131 228.13416,43.963593 228.768,47.132775 L 237.6417,47.132775 L 230.98642,33.505294 C 235.7402,32.237622 237.00787,26.533095 237.00787,22.096241 C 237.00787,15.44096 229.40183,13.856369 223.06347,14.173287 L 208.80215,14.173287 L 208.80215,47.132775 L 216.09127,47.132775 L 216.09127,34.139131 z" id="path6" style="fill: rgb(0, 0, 0); fill-rule: evenodd; stroke: none; stroke-width: 0.28; stroke-linecap: butt; stroke-linejoin: bevel;"/><polygon points="328.64,24.08 342.14,24.08 342.14,27.14 332.78,27.14 332.78,31.46 341.42,31.46 341.42,34.7 332.78,34.7 332.78,39.56 342.5,39.56 342.5,42.8 328.64,42.8 328.64,24.08" transform="matrix(1.76066, 0, 0, 1.76066, -331.473, -28.2233)" id="polygon8" style="fill: rgb(0, 0, 0); fill-rule: evenodd; stroke: none; stroke-width: 0.28; stroke-linecap: butt; stroke-linejoin: bevel;"/><polygon points="358.7,42.8 351.86,30.2 351.86,30.38 351.86,42.8 347.9,42.8 347.9,24.08 352.94,24.08 359.96,36.14 359.96,36.14 359.96,24.08 363.74,24.08 363.74,42.8 358.7,42.8" transform="matrix(1.76066, 0, 0, 1.76066, -331.473, -28.2233)" id="polygon10" style="fill: rgb(0, 0, 0); fill-rule: evenodd; stroke: none; stroke-width: 0.28; stroke-linecap: butt; stroke-linejoin: bevel;"/><path d="M 326.37879,19.560896 L 330.18181,19.560896 C 338.42168,19.560896 339.68935,25.265422 339.68935,30.336113 C 339.68935,35.723721 338.42168,41.428248 330.18181,41.428248 L 326.37879,41.428248 L 326.37879,19.560896 z M 319.08967,47.132775 L 330.49872,47.132775 C 340.95702,47.132775 347.29539,42.062084 347.29539,30.336113 C 347.29539,19.243978 340.95702,13.856369 330.49872,14.173287 L 319.08967,14.173287 L 319.08967,47.132775 z" id="path12" style="fill: rgb(0, 0, 0); fill-rule: evenodd; stroke: none; stroke-width: 0.28; stroke-linecap: butt; stroke-linejoin: bevel;"/><polygon points="300.56,58.1 298.4,58.1 298.4,49.82 296.42,58.1 294.44,58.1 292.46,49.82 292.28,58.1 290.3,58.1 290.3,47.66 293.54,47.66 295.34,54.86 297.32,47.66 300.56,47.66 300.56,58.1" transform="matrix(1.76066, 0, 0, 1.76066, -331.473, -28.2233)" id="polygon14" style="fill: rgb(0, 0, 0); fill-rule: evenodd; stroke: none; stroke-width: 0.28; stroke-linecap: butt; stroke-linejoin: bevel;"/><polygon points="314.24,47.66 316.4,47.66 316.4,58.1 314.24,58.1 314.24,47.66" transform="matrix(1.76066, 0, 0, 1.76066, -331.473, -28.2233)" id="polygon16" style="fill: rgb(0, 0, 0); fill-rule: evenodd; stroke: none; stroke-width: 0.28; stroke-linecap: butt; stroke-linejoin: bevel;"/><path d="M 301.34225,62.661764 C 301.02534,62.978683 300.70842,63.295601 300.3915,63.612519 C 299.75766,63.612519 299.75766,63.612519 299.12383,63.929437 C 298.80691,63.929437 298.17307,63.929437 297.22232,63.929437 C 297.22232,63.929437 297.22232,63.929437 296.9054,63.929437 L 294.05314,63.929437 L 294.05314,59.175665 L 297.22232,59.175665 C 298.48999,59.175665 299.12383,59.175665 299.75766,59.175665 C 300.07458,59.175665 300.3915,59.492583 300.70842,59.492583 C 301.02534,59.809501 301.34225,60.126419 301.34225,60.126419 C 301.65917,60.760255 301.65917,61.077174 301.65917,61.394092 C 301.65917,61.71101 301.65917,62.027928 301.34225,62.661764 z M 301.65917,66.7817 C 301.65917,66.7817 302.60993,66.464782 302.92684,66.464782 C 303.8776,66.147864 304.51143,65.19711 304.82835,64.563273 C 305.46219,63.929437 305.46219,62.344846 305.46219,61.394092 C 305.46219,60.126419 305.46219,59.175665 304.82835,58.22491 C 304.19452,57.591074 303.56068,56.957238 302.29301,56.323401 C 301.97609,56.323401 301.65917,56.323401 301.02534,56.323401 C 300.3915,56.006483 299.44074,56.006483 298.17307,56.006483 L 290.56704,56.006483 L 290.56704,74.387736 L 294.05314,74.387736 L 294.05314,67.098618 L 297.85615,67.098618 L 301.65917,74.387736 L 306.09603,74.387736 L 301.65917,66.7817 z" id="path18" style="fill: rgb(0, 0, 0); fill-rule: evenodd; stroke: none; stroke-width: 0.28; stroke-linecap: butt; stroke-linejoin: bevel;"/><path d="M 337.78784,70.2678 C 336.83709,70.901636 335.88633,71.218554 334.30174,71.218554 C 333.35099,71.218554 332.40023,70.901636 331.7664,70.584718 C 331.13256,70.2678 330.49872,69.633964 330.18181,69.000127 C 329.86489,68.366291 329.86489,67.732455 329.54797,67.415537 C 329.54797,66.7817 329.23105,65.830946 329.23105,64.880191 C 329.23105,63.295601 329.86489,61.71101 330.18181,60.760255 C 331.13256,59.492583 332.40023,58.541828 334.30174,58.541828 C 336.52017,58.541828 337.78784,59.492583 338.7386,60.760255 C 339.05551,62.027928 339.68935,63.295601 339.68935,64.880191 C 339.68935,67.098618 339.05551,69.000127 337.78784,70.2678 z M 340.95702,58.22491 C 339.68935,56.323401 337.154,55.372647 334.30174,55.372647 C 331.44948,55.372647 329.23105,56.323401 327.96338,57.907992 C 326.37879,59.492583 325.42803,62.027928 325.42803,65.19711 C 325.42803,67.732455 326.06187,69.633964 327.32954,71.535473 C 328.91413,73.120063 331.13256,74.387736 334.61866,74.387736 C 337.47092,74.387736 339.68935,73.436982 341.27394,71.535473 C 342.85853,69.633964 343.49237,67.732455 343.49237,64.880191 C 343.49237,62.027928 342.54161,59.809501 340.95702,58.22491 z" id="path20" style="fill: rgb(0, 0, 0); fill-rule: evenodd; stroke: none; stroke-width: 0.28; stroke-linecap: butt; stroke-linejoin: bevel;"/><path d="M 263.62899,62.027928 C 263.31208,60.760255 262.67824,58.858747 259.50906,58.858747 C 257.60755,58.858747 255.0722,60.126419 255.0722,65.19711 C 255.0722,68.366291 256.33988,71.535473 259.50906,71.535473 C 261.72748,71.535473 262.99516,70.2678 263.62899,68.049373 L 267.43201,68.049373 C 266.79817,72.169309 264.26283,74.704654 259.50906,74.704654 C 254.75528,74.704654 251.26919,71.535473 251.26919,65.19711 C 251.26919,58.858747 254.75528,55.689565 259.50906,55.689565 C 264.89667,55.689565 267.43201,59.492583 267.43201,62.027928 L 263.62899,62.027928 z" id="path22" style="fill: rgb(0, 0, 0); fill-rule: evenodd; stroke: none; stroke-width: 0.28; stroke-linecap: butt; stroke-linejoin: bevel;"/><polygon points="387.14,42.98 385.88,42.98 385.88,46.94 385.16,46.94 385.16,42.98 383.72,42.98 383.72,42.44 387.14,42.44 387.14,42.98" transform="matrix(1.76066, 0, 0, 1.76066, -331.473, -28.2233)" id="polygon24" style="fill: rgb(0, 0, 0); fill-rule: evenodd; stroke: none; stroke-width: 0.28; stroke-linecap: butt; stroke-linejoin: bevel;"/><path d="M 359.02136,54.421892 L 358.0706,54.421892 L 358.0706,47.766611 L 355.85218,54.421892 L 354.5845,54.421892 L 352.36608,47.766611 L 352.36608,54.421892 L 351.41532,54.421892 L 351.41532,46.498939 L 352.99991,46.498939 L 354.90142,52.203465 C 354.90142,52.203465 354.90142,52.203465 355.21834,52.837302 C 355.21834,53.15422 355.21834,53.15422 355.21834,53.471138 L 355.85218,52.203465 L 357.75368,46.498939 L 359.02136,46.498939 L 359.02136,54.421892 z" id="path26" style="fill: rgb(0, 0, 0); fill-rule: evenodd; stroke: none; stroke-width: 0.28; stroke-linecap: butt; stroke-linejoin: bevel;"/><path d="M 101.04998,-16.269829 C 134.64331,-16.269829 161.89827,10.985132 161.89827,44.261538 C 161.89827,77.854862 134.64331,105.10982 101.04998,105.10982 C 67.773575,105.10982 40.518614,77.854862 40.518614,44.261538 C 40.518614,10.985132 67.773575,-16.269829 101.04998,-16.269829 z M 79.182629,17.640413 L 155.87682,17.640413 L 79.182629,17.640413 z" id="path74" style="fill: url(#linearGradient3206) rgb(0, 0, 0); fill-opacity: 1; fill-rule: evenodd; stroke: none; stroke-width: 0.28; stroke-linecap: butt; stroke-linejoin: bevel;"/><path d="M 147.00311,4.3298508 C 148.90462,6.2313597 150.80613,8.1328686 152.0738,10.668214 C 157.14449,20.492677 153.65839,35.704748 141.93242,51.233737 C 123.55117,76.587189 90.274764,93.70077 67.773575,89.897752 C 62.702885,88.946997 58.266031,87.362407 55.413767,84.510143 C 53.829177,82.925552 52.244586,81.024044 51.293831,79.122535 C 46.540059,70.565745 48.12465,57.889018 56.364522,44.261538 L 49.709241,44.578456 L 51.61075,40.141602 C 56.364522,38.873929 72.527348,32.218648 77.28112,25.563367 L 82.668728,25.563367 L 76.647284,40.141602 L 86.788664,40.141602 L 84.570237,44.261538 L 74.745775,44.261538 L 67.456657,60.741282 C 64.921312,69.61499 68.72433,80.390207 84.253319,77.537944 C 100.73306,74.368762 119.74815,62.325873 131.79104,46.163047 C 146.6862,25.880285 144.15085,6.5482778 126.08652,3.3790963 C 116.89589,2.1114237 105.48684,4.6467689 93.760864,10.351296 C 107.38834,1.4775874 122.2835,-3.2761849 134.96022,-1.0577578 C 140.03091,-0.10700335 144.15085,1.4775874 147.00311,4.3298508 z" id="path332" style="fill: rgb(255, 255, 255); fill-rule: evenodd; stroke: none; stroke-width: 0.28; stroke-linecap: butt; stroke-linejoin: bevel;"/>























































































<path d="M 101.08694,-13.696258 C 126.84532,-13.696258 147.74363,3.445846 147.74363,24.37516 C 147.74363,45.503801 126.84532,62.645902 101.08694,62.645902 C 75.571562,62.645902 54.673253,45.503801 54.673253,24.37516 C 54.673253,3.445846 75.571562,-13.696258 101.08694,-13.696258 z M 84.319691,7.631709 L 143.12656,7.631709 L 84.319691,7.631709 z" id="path3251" style="fill: url(#linearGradient3261) rgb(0, 0, 0); fill-opacity: 1; fill-rule: evenodd; stroke: none; stroke-width: 0.28; stroke-linecap: butt; stroke-linejoin: bevel;"/><path d="M 101.08694,102.68992 C 126.84532,102.68992 147.74363,85.547828 147.74363,64.618514 C 147.74363,43.489873 126.84532,26.347772 101.08694,26.347772 C 75.571562,26.347772 54.673253,43.489873 54.673253,64.618514 C 54.673253,85.547828 75.571562,102.68992 101.08694,102.68992 z M 84.319691,81.361965 L 143.12656,81.361965 L 84.319691,81.361965 z" id="path3840" style="fill: url(#linearGradient3842) rgb(0, 0, 0); fill-opacity: 1; fill-rule: evenodd; stroke: none; stroke-width: 0.28; stroke-linecap: butt; stroke-linejoin: bevel;"/></svg>